<svg width="581" height="353" viewBox="0 0 581 353" fill="none" xmlns="http://www.w3.org/2000/svg">
<line x1="266" y1="128" x2="316" y2="128" stroke="#B7B6B6" stroke-width="4"/>
<g opacity="0.4">
<path d="M249.094 186.453H253.781V210.501C253.781 213.17 253.187 215.392 251.999 217.166C250.811 218.94 249.232 220.275 247.263 221.17C245.31 222.049 243.186 222.488 240.891 222.488C238.482 222.488 236.301 222.049 234.348 221.17C232.411 220.275 230.873 218.94 229.733 217.166C228.61 215.392 228.049 213.17 228.049 210.501V186.453H232.712V210.501C232.712 212.356 233.054 213.886 233.737 215.091C234.421 216.295 235.373 217.19 236.594 217.776C237.831 218.362 239.263 218.655 240.891 218.655C242.535 218.655 243.967 218.362 245.188 217.776C246.424 217.19 247.385 216.295 248.068 215.091C248.752 213.886 249.094 212.356 249.094 210.501V186.453ZM265.012 201.224V222H260.495V195.584H264.768L265.012 201.224ZM263.938 207.791L262.058 207.718C262.074 205.911 262.342 204.243 262.863 202.713C263.384 201.167 264.117 199.824 265.061 198.685C266.005 197.545 267.128 196.666 268.43 196.048C269.748 195.413 271.205 195.096 272.8 195.096C274.102 195.096 275.274 195.275 276.315 195.633C277.357 195.975 278.244 196.528 278.977 197.293C279.725 198.058 280.295 199.051 280.686 200.271C281.076 201.476 281.271 202.949 281.271 204.69V222H276.73V204.642C276.73 203.258 276.527 202.151 276.12 201.321C275.713 200.475 275.119 199.865 274.338 199.49C273.557 199.1 272.596 198.904 271.457 198.904C270.334 198.904 269.309 199.14 268.381 199.612C267.469 200.084 266.68 200.735 266.013 201.565C265.362 202.396 264.849 203.348 264.475 204.422C264.117 205.48 263.938 206.603 263.938 207.791ZM304.782 216.873V184.5H309.323V222H305.173L304.782 216.873ZM287.009 209.085V208.572C287.009 206.554 287.253 204.723 287.741 203.079C288.246 201.419 288.954 199.995 289.865 198.807C290.793 197.618 291.892 196.707 293.161 196.072C294.447 195.421 295.879 195.096 297.458 195.096C299.118 195.096 300.567 195.389 301.804 195.975C303.057 196.544 304.115 197.382 304.978 198.489C305.856 199.58 306.548 200.898 307.053 202.444C307.557 203.991 307.907 205.74 308.103 207.693V209.939C307.924 211.876 307.574 213.618 307.053 215.164C306.548 216.71 305.856 218.029 304.978 219.119C304.115 220.21 303.057 221.048 301.804 221.634C300.55 222.203 299.086 222.488 297.409 222.488C295.863 222.488 294.447 222.155 293.161 221.487C291.892 220.82 290.793 219.884 289.865 218.68C288.954 217.475 288.246 216.059 287.741 214.432C287.253 212.788 287.009 211.006 287.009 209.085ZM291.55 208.572V209.085C291.55 210.403 291.68 211.64 291.94 212.796C292.217 213.951 292.64 214.969 293.21 215.848C293.78 216.727 294.504 217.418 295.383 217.923C296.262 218.411 297.312 218.655 298.532 218.655C300.03 218.655 301.258 218.338 302.219 217.703C303.195 217.068 303.977 216.23 304.562 215.188C305.148 214.147 305.604 213.016 305.93 211.795V205.911C305.734 205.016 305.45 204.153 305.075 203.323C304.717 202.477 304.245 201.728 303.659 201.077C303.09 200.41 302.382 199.881 301.535 199.49C300.705 199.1 299.72 198.904 298.581 198.904C297.344 198.904 296.278 199.165 295.383 199.686C294.504 200.19 293.78 200.89 293.21 201.785C292.64 202.664 292.217 203.689 291.94 204.861C291.68 206.017 291.55 207.254 291.55 208.572ZM327.316 222.488C325.477 222.488 323.809 222.179 322.312 221.561C320.83 220.926 319.553 220.039 318.479 218.899C317.421 217.76 316.607 216.409 316.037 214.847C315.467 213.284 315.183 211.575 315.183 209.72V208.694C315.183 206.546 315.5 204.633 316.135 202.957C316.77 201.264 317.632 199.832 318.723 198.66C319.813 197.488 321.05 196.601 322.434 195.999C323.817 195.397 325.249 195.096 326.73 195.096C328.618 195.096 330.246 195.421 331.613 196.072C332.997 196.723 334.128 197.635 335.007 198.807C335.886 199.962 336.537 201.329 336.96 202.908C337.383 204.471 337.595 206.18 337.595 208.035V210.062H317.868V206.375H333.078V206.033C333.013 204.861 332.769 203.722 332.346 202.615C331.939 201.508 331.288 200.597 330.393 199.881C329.497 199.165 328.277 198.807 326.73 198.807C325.705 198.807 324.761 199.026 323.898 199.466C323.036 199.889 322.295 200.524 321.677 201.37C321.058 202.216 320.578 203.25 320.236 204.471C319.895 205.691 319.724 207.099 319.724 208.694V209.72C319.724 210.973 319.895 212.153 320.236 213.26C320.594 214.35 321.107 215.311 321.774 216.141C322.458 216.971 323.28 217.622 324.24 218.094C325.217 218.566 326.324 218.802 327.561 218.802C329.156 218.802 330.507 218.476 331.613 217.825C332.72 217.174 333.688 216.303 334.519 215.213L337.253 217.386C336.683 218.248 335.959 219.07 335.08 219.852C334.201 220.633 333.119 221.268 331.833 221.756C330.563 222.244 329.058 222.488 327.316 222.488ZM347.385 199.734V222H342.868V195.584H347.263L347.385 199.734ZM355.637 195.438L355.612 199.637C355.238 199.555 354.88 199.507 354.538 199.49C354.213 199.458 353.838 199.441 353.415 199.441C352.373 199.441 351.454 199.604 350.656 199.93C349.859 200.255 349.183 200.711 348.63 201.297C348.076 201.883 347.637 202.583 347.312 203.396C347.002 204.194 346.799 205.073 346.701 206.033L345.432 206.766C345.432 205.171 345.586 203.673 345.896 202.273C346.221 200.874 346.717 199.637 347.385 198.562C348.052 197.472 348.898 196.626 349.924 196.023C350.965 195.405 352.202 195.096 353.635 195.096C353.96 195.096 354.335 195.136 354.758 195.218C355.181 195.283 355.474 195.356 355.637 195.438ZM47.6289 308.416H62.2285C61.9355 313.201 60.6172 317.449 58.2734 321.16C55.9622 324.871 52.7233 327.768 48.5566 329.852C44.4225 331.935 39.4421 332.977 33.6152 332.977C29.0579 332.977 24.9727 332.195 21.3594 330.633C17.7461 329.038 14.6536 326.759 12.082 323.797C9.54297 320.835 7.60612 317.254 6.27148 313.055C4.93685 308.855 4.26953 304.152 4.26953 298.943V294.012C4.26953 288.803 4.95312 284.1 6.32031 279.9C7.72005 275.669 9.70573 272.072 12.2773 269.109C14.8815 266.147 17.9902 263.868 21.6035 262.273C25.2168 260.678 29.2533 259.881 33.7129 259.881C39.6374 259.881 44.6341 260.955 48.7031 263.104C52.8047 265.252 55.9785 268.214 58.2246 271.99C60.5033 275.766 61.8704 280.063 62.3262 284.881H47.6777C47.515 282.016 46.9453 279.591 45.9688 277.605C44.9922 275.587 43.5111 274.074 41.5254 273.064C39.5723 272.023 36.9681 271.502 33.7129 271.502C31.2715 271.502 29.1393 271.958 27.3164 272.869C25.4935 273.781 23.9635 275.164 22.7266 277.02C21.4896 278.875 20.5618 281.219 19.9434 284.051C19.3574 286.85 19.0645 290.138 19.0645 293.914V298.943C19.0645 302.622 19.3411 305.861 19.8945 308.66C20.4479 311.427 21.2943 313.771 22.4336 315.691C23.6055 317.579 25.1029 319.012 26.9258 319.988C28.7812 320.932 31.0111 321.404 33.6152 321.404C36.6751 321.404 39.1979 320.916 41.1836 319.939C43.1693 318.963 44.6829 317.514 45.7246 315.594C46.7988 313.673 47.4336 311.281 47.6289 308.416ZM68.7227 306.121V305.096C68.7227 301.222 69.276 297.658 70.3828 294.402C71.4896 291.115 73.1009 288.266 75.2168 285.857C77.3327 283.449 79.9368 281.577 83.0293 280.242C86.1217 278.875 89.6699 278.191 93.6738 278.191C97.6777 278.191 101.242 278.875 104.367 280.242C107.492 281.577 110.113 283.449 112.229 285.857C114.377 288.266 116.005 291.115 117.111 294.402C118.218 297.658 118.771 301.222 118.771 305.096V306.121C118.771 309.962 118.218 313.527 117.111 316.814C116.005 320.07 114.377 322.918 112.229 325.359C110.113 327.768 107.508 329.64 104.416 330.975C101.324 332.309 97.7754 332.977 93.7715 332.977C89.7676 332.977 86.2031 332.309 83.0781 330.975C79.9857 329.64 77.3652 327.768 75.2168 325.359C73.1009 322.918 71.4896 320.07 70.3828 316.814C69.276 313.527 68.7227 309.962 68.7227 306.121ZM82.7852 305.096V306.121C82.7852 308.335 82.9805 310.402 83.3711 312.322C83.7617 314.243 84.3802 315.936 85.2266 317.4C86.1055 318.833 87.2448 319.956 88.6445 320.77C90.0443 321.583 91.7533 321.99 93.7715 321.99C95.7246 321.99 97.401 321.583 98.8008 320.77C100.201 319.956 101.324 318.833 102.17 317.4C103.016 315.936 103.635 314.243 104.025 312.322C104.449 310.402 104.66 308.335 104.66 306.121V305.096C104.66 302.947 104.449 300.929 104.025 299.041C103.635 297.12 103 295.428 102.121 293.963C101.275 292.465 100.152 291.294 98.752 290.447C97.3522 289.601 95.6595 289.178 93.6738 289.178C91.6882 289.178 89.9954 289.601 88.5957 290.447C87.2285 291.294 86.1055 292.465 85.2266 293.963C84.3802 295.428 83.7617 297.12 83.3711 299.041C82.9805 300.929 82.7852 302.947 82.7852 305.096ZM141.184 290.447V332H127.121V279.168H140.305L141.184 290.447ZM139.133 303.729H135.324C135.324 299.822 135.829 296.307 136.838 293.182C137.847 290.024 139.263 287.339 141.086 285.125C142.909 282.879 145.074 281.17 147.58 279.998C150.119 278.794 152.951 278.191 156.076 278.191C158.55 278.191 160.812 278.549 162.863 279.266C164.914 279.982 166.672 281.121 168.137 282.684C169.634 284.246 170.773 286.313 171.555 288.885C172.368 291.456 172.775 294.598 172.775 298.309V332H158.615V298.26C158.615 295.916 158.29 294.093 157.639 292.791C156.988 291.489 156.027 290.577 154.758 290.057C153.521 289.503 151.991 289.227 150.168 289.227C148.28 289.227 146.636 289.601 145.236 290.35C143.869 291.098 142.73 292.14 141.818 293.475C140.939 294.777 140.272 296.307 139.816 298.064C139.361 299.822 139.133 301.71 139.133 303.729ZM212.033 317.4C212.033 316.391 211.74 315.48 211.154 314.666C210.568 313.852 209.478 313.104 207.883 312.42C206.32 311.704 204.058 311.053 201.096 310.467C198.426 309.881 195.936 309.148 193.625 308.27C191.346 307.358 189.361 306.268 187.668 304.998C186.008 303.729 184.706 302.231 183.762 300.506C182.818 298.748 182.346 296.746 182.346 294.5C182.346 292.286 182.818 290.203 183.762 288.25C184.738 286.297 186.122 284.572 187.912 283.074C189.735 281.544 191.949 280.356 194.553 279.51C197.189 278.631 200.152 278.191 203.439 278.191C208.029 278.191 211.968 278.924 215.256 280.389C218.576 281.854 221.115 283.872 222.873 286.443C224.663 288.982 225.559 291.88 225.559 295.135H211.496C211.496 293.768 211.203 292.547 210.617 291.473C210.064 290.366 209.185 289.503 207.98 288.885C206.809 288.234 205.279 287.908 203.391 287.908C201.828 287.908 200.477 288.185 199.338 288.738C198.199 289.259 197.32 289.975 196.701 290.887C196.115 291.766 195.822 292.742 195.822 293.816C195.822 294.63 195.985 295.363 196.311 296.014C196.669 296.632 197.238 297.202 198.02 297.723C198.801 298.243 199.81 298.732 201.047 299.188C202.316 299.611 203.879 300.001 205.734 300.359C209.543 301.141 212.945 302.166 215.939 303.436C218.934 304.673 221.311 306.365 223.068 308.514C224.826 310.63 225.705 313.413 225.705 316.863C225.705 319.207 225.184 321.355 224.143 323.309C223.101 325.262 221.604 326.971 219.65 328.436C217.697 329.868 215.354 330.991 212.619 331.805C209.917 332.586 206.874 332.977 203.488 332.977C198.573 332.977 194.406 332.098 190.988 330.34C187.603 328.582 185.031 326.352 183.273 323.65C181.548 320.916 180.686 318.117 180.686 315.252H194.016C194.081 317.173 194.569 318.719 195.48 319.891C196.424 321.062 197.613 321.909 199.045 322.43C200.51 322.951 202.089 323.211 203.781 323.211C205.604 323.211 207.118 322.967 208.322 322.479C209.527 321.958 210.438 321.274 211.057 320.428C211.708 319.549 212.033 318.54 212.033 317.4ZM260.715 279.168V289.129H229.953V279.168H260.715ZM237.57 266.131H251.633V316.082C251.633 317.612 251.828 318.784 252.219 319.598C252.642 320.411 253.26 320.981 254.074 321.307C254.888 321.6 255.913 321.746 257.15 321.746C258.029 321.746 258.811 321.714 259.494 321.648C260.21 321.551 260.812 321.453 261.301 321.355L261.35 331.707C260.145 332.098 258.843 332.407 257.443 332.635C256.044 332.863 254.497 332.977 252.805 332.977C249.712 332.977 247.01 332.472 244.699 331.463C242.421 330.421 240.663 328.761 239.426 326.482C238.189 324.204 237.57 321.209 237.57 317.498V266.131ZM282.785 290.691V332H268.723V279.168H281.955L282.785 290.691ZM298.703 278.826L298.459 291.863C297.775 291.766 296.945 291.684 295.969 291.619C295.025 291.521 294.162 291.473 293.381 291.473C291.395 291.473 289.67 291.733 288.205 292.254C286.773 292.742 285.568 293.475 284.592 294.451C283.648 295.428 282.932 296.616 282.443 298.016C281.988 299.415 281.727 301.01 281.662 302.801L278.83 301.922C278.83 298.504 279.172 295.363 279.855 292.498C280.539 289.601 281.532 287.078 282.834 284.93C284.169 282.781 285.796 281.121 287.717 279.949C289.637 278.777 291.835 278.191 294.309 278.191C295.09 278.191 295.887 278.257 296.701 278.387C297.515 278.484 298.182 278.631 298.703 278.826ZM336.594 319.354V279.168H350.656V332H337.424L336.594 319.354ZM338.156 308.514L342.307 308.416C342.307 311.932 341.9 315.203 341.086 318.23C340.272 321.225 339.051 323.829 337.424 326.043C335.796 328.224 333.745 329.933 331.271 331.17C328.798 332.374 325.884 332.977 322.531 332.977C319.96 332.977 317.583 332.618 315.402 331.902C313.254 331.154 311.398 329.998 309.836 328.436C308.306 326.84 307.102 324.806 306.223 322.332C305.376 319.826 304.953 316.814 304.953 313.299V279.168H319.016V313.396C319.016 314.959 319.195 316.277 319.553 317.352C319.943 318.426 320.48 319.305 321.164 319.988C321.848 320.672 322.645 321.16 323.557 321.453C324.501 321.746 325.542 321.893 326.682 321.893C329.579 321.893 331.857 321.307 333.518 320.135C335.21 318.963 336.398 317.368 337.082 315.35C337.798 313.299 338.156 311.02 338.156 308.514ZM383.225 321.99C384.95 321.99 386.48 321.665 387.814 321.014C389.149 320.33 390.191 319.386 390.939 318.182C391.721 316.945 392.128 315.496 392.16 313.836H405.393C405.36 317.547 404.367 320.851 402.414 323.748C400.461 326.613 397.84 328.875 394.553 330.535C391.265 332.163 387.587 332.977 383.518 332.977C379.416 332.977 375.835 332.293 372.775 330.926C369.748 329.559 367.225 327.671 365.207 325.262C363.189 322.82 361.675 319.988 360.666 316.766C359.657 313.51 359.152 310.027 359.152 306.316V304.9C359.152 301.157 359.657 297.674 360.666 294.451C361.675 291.196 363.189 288.364 365.207 285.955C367.225 283.514 369.748 281.609 372.775 280.242C375.803 278.875 379.351 278.191 383.42 278.191C387.749 278.191 391.542 279.021 394.797 280.682C398.085 282.342 400.656 284.718 402.512 287.811C404.4 290.87 405.36 294.5 405.393 298.699H392.16C392.128 296.941 391.753 295.346 391.037 293.914C390.354 292.482 389.344 291.342 388.01 290.496C386.708 289.617 385.096 289.178 383.176 289.178C381.125 289.178 379.449 289.617 378.146 290.496C376.844 291.342 375.835 292.514 375.119 294.012C374.403 295.477 373.898 297.153 373.605 299.041C373.345 300.896 373.215 302.85 373.215 304.9V306.316C373.215 308.367 373.345 310.337 373.605 312.225C373.866 314.113 374.354 315.789 375.07 317.254C375.819 318.719 376.844 319.874 378.146 320.721C379.449 321.567 381.141 321.99 383.225 321.99ZM439.426 279.168V289.129H408.664V279.168H439.426ZM416.281 266.131H430.344V316.082C430.344 317.612 430.539 318.784 430.93 319.598C431.353 320.411 431.971 320.981 432.785 321.307C433.599 321.6 434.624 321.746 435.861 321.746C436.74 321.746 437.521 321.714 438.205 321.648C438.921 321.551 439.523 321.453 440.012 321.355L440.061 331.707C438.856 332.098 437.554 332.407 436.154 332.635C434.755 332.863 433.208 332.977 431.516 332.977C428.423 332.977 425.721 332.472 423.41 331.463C421.132 330.421 419.374 328.761 418.137 326.482C416.9 324.204 416.281 321.209 416.281 317.498V266.131ZM462.277 279.168V332H448.166V279.168H462.277ZM447.287 265.398C447.287 263.348 448.003 261.655 449.436 260.32C450.868 258.986 452.788 258.318 455.197 258.318C457.574 258.318 459.478 258.986 460.91 260.32C462.375 261.655 463.107 263.348 463.107 265.398C463.107 267.449 462.375 269.142 460.91 270.477C459.478 271.811 457.574 272.479 455.197 272.479C452.788 272.479 450.868 271.811 449.436 270.477C448.003 269.142 447.287 267.449 447.287 265.398ZM471.652 306.121V305.096C471.652 301.222 472.206 297.658 473.312 294.402C474.419 291.115 476.031 288.266 478.146 285.857C480.262 283.449 482.867 281.577 485.959 280.242C489.051 278.875 492.6 278.191 496.604 278.191C500.607 278.191 504.172 278.875 507.297 280.242C510.422 281.577 513.042 283.449 515.158 285.857C517.307 288.266 518.934 291.115 520.041 294.402C521.148 297.658 521.701 301.222 521.701 305.096V306.121C521.701 309.962 521.148 313.527 520.041 316.814C518.934 320.07 517.307 322.918 515.158 325.359C513.042 327.768 510.438 329.64 507.346 330.975C504.253 332.309 500.705 332.977 496.701 332.977C492.697 332.977 489.133 332.309 486.008 330.975C482.915 329.64 480.295 327.768 478.146 325.359C476.031 322.918 474.419 320.07 473.312 316.814C472.206 313.527 471.652 309.962 471.652 306.121ZM485.715 305.096V306.121C485.715 308.335 485.91 310.402 486.301 312.322C486.691 314.243 487.31 315.936 488.156 317.4C489.035 318.833 490.174 319.956 491.574 320.77C492.974 321.583 494.683 321.99 496.701 321.99C498.654 321.99 500.331 321.583 501.73 320.77C503.13 319.956 504.253 318.833 505.1 317.4C505.946 315.936 506.564 314.243 506.955 312.322C507.378 310.402 507.59 308.335 507.59 306.121V305.096C507.59 302.947 507.378 300.929 506.955 299.041C506.564 297.12 505.93 295.428 505.051 293.963C504.204 292.465 503.081 291.294 501.682 290.447C500.282 289.601 498.589 289.178 496.604 289.178C494.618 289.178 492.925 289.601 491.525 290.447C490.158 291.294 489.035 292.465 488.156 293.963C487.31 295.428 486.691 297.12 486.301 299.041C485.91 300.929 485.715 302.947 485.715 305.096ZM544.113 290.447V332H530.051V279.168H543.234L544.113 290.447ZM542.062 303.729H538.254C538.254 299.822 538.758 296.307 539.768 293.182C540.777 290.024 542.193 287.339 544.016 285.125C545.839 282.879 548.003 281.17 550.51 279.998C553.049 278.794 555.881 278.191 559.006 278.191C561.48 278.191 563.742 278.549 565.793 279.266C567.844 279.982 569.602 281.121 571.066 282.684C572.564 284.246 573.703 286.313 574.484 288.885C575.298 291.456 575.705 294.598 575.705 298.309V332H561.545V298.26C561.545 295.916 561.219 294.093 560.568 292.791C559.917 291.489 558.957 290.577 557.688 290.057C556.451 289.503 554.921 289.227 553.098 289.227C551.21 289.227 549.566 289.601 548.166 290.35C546.799 291.098 545.66 292.14 544.748 293.475C543.869 294.777 543.202 296.307 542.746 298.064C542.29 299.822 542.062 301.71 542.062 303.729Z" fill="#676767"/>
</g>
<g opacity="0.4">
<path d="M306 15C306 17.2344 305.516 19.3594 304.625 21.2812L312.875 35.5312C309.172 39.4844 304.422 42.4219 299.062 43.9062L291 30H290.859L280.359 48.3594C283.719 49.4219 287.297 50 291 50C302.047 50 311.906 44.8906 318.328 36.7344C320.047 34.7188 323.203 34.2344 325.359 36.0938C327.516 37.8281 327.859 40.9688 326.125 43.125C317.891 53.4062 305.078 60 291 60C285.469 60 280.156 59 275.266 57.1719L266.414 72.4531C265.68 73.7188 264.589 74.75 263.278 75.4062L254.619 79.7344C253.844 80.125 252.923 80.0781 252.186 79.625C251.449 79.1719 251 78.3594 251 77.5V68.8438C251 67.5312 251.348 66.2344 252.009 65.0781L261.389 48.8906C259.384 47.125 257.537 45.2031 255.872 43.125C254.145 40.9688 254.491 37.8281 256.645 36.0938C258.8 34.2344 261.947 34.7188 263.675 36.7344C264.561 37.9844 265.511 39.0312 266.522 40.0156L277.375 21.2812C276.484 19.3594 276 17.2344 276 15C276 6.71562 282.578 0 291 0C299.281 0 306 6.71562 306 15ZM291 20C293.766 20 296 17.7656 296 15C296 12.2391 293.766 10 291 10C288.234 10 286 12.2391 286 15C286 17.7656 288.234 20 291 20ZM309.141 61.5469C314.359 59.5469 319.047 56.75 323.156 53.2812L329.984 65.0781C330.656 66.2344 331 67.5312 331 68.8438V77.5C331 78.3594 330.547 79.1719 329.812 79.625C329.078 80.0781 328.156 80.125 327.375 79.7344L318.719 75.4062C317.406 74.75 316.328 73.7188 315.578 72.4531L309.141 61.5469Z" fill="#676767"/>
</g>
</svg>
