<svg width="371" height="378" viewBox="0 0 371 378" fill="none" xmlns="http://www.w3.org/2000/svg">
<g clip-path="url(#clip0_45_195)">
<path d="M21.4239 370.988C20.3599 370.04 17.9822 367.025 19.8118 363.524C20.4808 362.239 21.9075 361.609 23.1971 361.004C24.5237 360.539 25.7741 359.865 26.9047 359.006C28.9198 357.217 29.4759 354.262 30.8139 351.877C32.3453 349.148 35.2067 347.107 38.2292 347.25C41.687 347.41 44.5806 350.357 45.8864 353.716C47.1921 357.075 47.2405 360.803 47.2727 364.43C47.2727 366.437 47.2002 368.696 45.7816 370.048C44.363 371.4 42.5172 371.316 40.7521 371.257L21.8349 370.653" fill="#F5F5F5"/>
<path d="M57.6058 316.786H7.85059L16.8135 372.458C16.9994 373.619 17.497 374.701 18.2488 375.579C19.0005 376.457 19.9756 377.096 21.0612 377.421L21.2385 377.471C21.3835 377.471 21.5287 377.563 21.6818 377.589C22.0137 377.658 22.3509 377.697 22.6893 377.706V377.765L22.9311 377.723H45.1126C45.5213 377.723 45.929 377.681 46.3297 377.597C47.6243 377.389 48.8176 376.744 49.7262 375.761C50.6349 374.778 51.2086 373.511 51.3592 372.156L55.6795 333.79L55.881 332.27L57.5897 317.071L57.6058 316.786ZM48.2158 352.297H43.1137L43.6295 336.141H49.5457L48.2158 352.297ZM50.0374 336.141H54.9299L53.1083 352.297H48.7155L50.0374 336.141ZM35.4566 370.216L35.1422 356.176H42.4689L42.0256 370.216H35.4566ZM27.5012 356.176H34.6505L34.9568 370.216H28.549L27.5012 356.176ZM28.0574 370.216H22.0687C21.4964 366.42 20.7549 361.5 19.9569 356.176H27.0095L28.0574 370.216ZM27.2513 352.297L26.0504 336.141H34.2475L34.6022 352.297H27.2513ZM35.0938 352.297L34.7392 336.141H43.1782L42.6623 352.297H35.0938ZM34.6505 332.27L34.3201 317.298H43.7746L43.2749 332.27H34.6505ZM34.1589 332.27H25.7199L24.5996 317.298H33.7881L34.1589 332.27ZM25.2927 332.27H16.4266C16.1122 330.196 15.814 328.239 15.54 326.484C14.6131 320.43 14.2665 318.154 14.073 317.298H24.1966L25.2927 332.27ZM25.5748 336.141L26.7838 352.297H19.433C19.1804 350.656 18.9306 349.005 18.6834 347.342C18.1111 343.53 17.5308 339.718 16.9908 336.141H25.5748ZM18.9333 352.297H14.0972L11.5019 336.141H16.4588C17.1842 341.137 18.0225 346.696 18.8688 352.297H18.9333ZM19.5217 356.176C20.2471 361.03 20.9725 365.824 21.6334 370.216H17.015L14.7581 356.176H19.5217ZM42.6059 370.216L43.0573 356.176H47.9659L46.8133 370.216H42.6059ZM43.8149 332.27L44.2905 317.298H51.1577L49.9245 332.27H43.8149ZM13.5813 317.298C13.7748 318.381 14.6856 324.267 15.9027 332.27H10.9054L8.48737 317.298H13.5813ZM51.1577 370.199H47.313L48.4656 356.159H52.7375L51.1577 370.199ZM55.4296 332.253H50.4242L51.6494 317.281H57.1141L55.4296 332.253Z" fill="#E0E0E0"/>
<path d="M360.087 79.78H293.026V142.287H360.087V79.78Z" fill="#FAFAFA"/>
<path d="M360.087 142.287C360.087 142.287 360.087 141.884 360.087 141.129C360.087 140.373 360.087 139.239 360.087 137.77C360.087 134.831 360.087 130.54 360.087 125.082C360.087 114.166 360.038 98.5558 360.006 79.7381L360.159 79.8976H293.107L293.284 79.7129C293.284 102.452 293.284 123.856 293.284 142.22L293.131 142.052L341.637 142.136L355.339 142.178H358.958H355.371L341.726 142.22L293.123 142.304H292.962V142.145C292.962 123.78 292.962 102.376 292.962 79.6373V79.4526H293.147H360.2H360.353V79.6121C360.353 98.4382 360.288 114.04 360.272 125.023C360.272 130.473 360.272 134.747 360.232 137.677C360.232 139.122 360.232 140.197 360.232 141.036C360.232 141.876 360.087 142.287 360.087 142.287Z" fill="#E0E0E0"/>
<path d="M318.738 90.8893C318.738 90.99 315.208 91.074 310.855 91.074C306.503 91.074 302.972 90.99 302.972 90.8893C302.972 90.7885 306.503 90.6962 310.855 90.6962C315.208 90.6962 318.738 90.7801 318.738 90.8893Z" fill="#E0E0E0"/>
<path d="M347.142 95.5832C347.142 95.684 337.47 95.768 325.493 95.768C313.515 95.768 303.827 95.684 303.827 95.5832C303.827 95.4825 313.499 95.3901 325.493 95.3901C337.486 95.3901 347.142 95.4741 347.142 95.5832Z" fill="#E0E0E0"/>
<path d="M305.915 103.527H303.085V106.474H305.915V103.527Z" fill="#E0E0E0"/>
<path d="M312.87 103.527H310.041V106.474H312.87V103.527Z" fill="#E0E0E0"/>
<path d="M319.955 103.392H317.126V106.34H319.955V103.392Z" fill="#E0E0E0"/>
<path d="M326.782 103.527H323.953V106.474H326.782V103.527Z" fill="#E0E0E0"/>
<path d="M333.738 103.527H330.909V106.474H333.738V103.527Z" fill="#E0E0E0"/>
<path d="M340.686 103.527H337.857V106.474H340.686V103.527Z" fill="#E0E0E0"/>
<path d="M347.642 103.527H344.812V106.474H347.642V103.527Z" fill="#EBEBEB"/>
<path d="M305.915 109.783H303.085V112.73H305.915V109.783Z" fill="#EBEBEB"/>
<path d="M312.87 109.783H310.041V112.73H312.87V109.783Z" fill="#E0E0E0"/>
<path d="M319.826 109.783H316.997V112.73H319.826V109.783Z" fill="#EBEBEB"/>
<path d="M326.782 109.783H323.953V112.73H326.782V109.783Z" fill="#E0E0E0"/>
<path d="M333.738 109.783H330.909V112.73H333.738V109.783Z" fill="#E0E0E0"/>
<path d="M340.815 109.648H337.986V112.596H340.815V109.648Z" fill="#E0E0E0"/>
<path d="M347.642 109.783H344.812V112.73H347.642V109.783Z" fill="#E0E0E0"/>
<path d="M305.915 116.047H303.085V118.994H305.915V116.047Z" fill="#E0E0E0"/>
<path d="M312.999 115.912H310.17V118.86H312.999V115.912Z" fill="#E0E0E0"/>
<path d="M319.826 116.047H316.997V118.994H319.826V116.047Z" fill="#E0E0E0"/>
<path d="M326.782 116.047H323.953V118.994H326.782V116.047Z" fill="#EBEBEB"/>
<path d="M333.738 116.047H330.909V118.994H333.738V116.047Z" fill="#E0E0E0"/>
<path d="M340.686 116.047H337.857V118.994H340.686V116.047Z" fill="#E0E0E0"/>
<path d="M347.642 116.047H344.812V118.994H347.642V116.047Z" fill="#E0E0E0"/>
<path d="M305.915 122.303H303.085V125.25H305.915V122.303Z" fill="#E0E0E0"/>
<path d="M312.87 122.303H310.041V125.25H312.87V122.303Z" fill="#E0E0E0"/>
<path d="M319.826 122.303H316.997V125.25H319.826V122.303Z" fill="#E0E0E0"/>
<path d="M326.911 122.168H324.082V125.116H326.911V122.168Z" fill="#E0E0E0"/>
<path d="M333.738 122.303H330.909V125.25H333.738V122.303Z" fill="#E0E0E0"/>
<path d="M340.686 122.303H337.857V125.25H340.686V122.303Z" fill="#EBEBEB"/>
<path d="M347.642 122.303H344.812V125.25H347.642V122.303Z" fill="#E0E0E0"/>
<path d="M305.915 128.558H303.085V131.506H305.915V128.558Z" fill="#E0E0E0"/>
<path d="M312.87 128.558H310.041V131.506H312.87V128.558Z" fill="#EBEBEB"/>
<path d="M319.826 128.558H316.997V131.506H319.826V128.558Z" fill="#E0E0E0"/>
<path d="M326.782 128.558H323.953V131.506H326.782V128.558Z" fill="#E0E0E0"/>
<path d="M333.738 128.558H330.909V131.506H333.738V128.558Z" fill="#E0E0E0"/>
<path d="M340.815 128.424H337.986V131.371H340.815V128.424Z" fill="#E0E0E0"/>
<path d="M347.642 128.558H344.812V131.506H347.642V128.558Z" fill="#E0E0E0"/>
<path d="M347.151 39.346C349.292 25.4631 340.226 12.4 326.9 10.1689C313.574 7.93775 301.035 17.3834 298.893 31.2663C296.752 45.1492 305.818 58.2121 319.144 60.4433C332.47 62.6744 345.009 53.2289 347.151 39.346Z" fill="#E0E0E0"/>
<path d="M323.284 58.0905C335.499 58.0905 345.401 47.7746 345.401 35.0491C345.401 22.3237 335.499 12.0077 323.284 12.0077C311.069 12.0077 301.167 22.3237 301.167 35.0491C301.167 47.7746 311.069 58.0905 323.284 58.0905Z" fill="white"/>
<path d="M300.941 33.672C300.941 33.672 300.941 33.798 300.941 34.0499C300.941 34.3018 300.941 34.6713 300.941 35.1499V35.9896C300.941 36.2835 300.99 36.611 301.014 36.9637C301.038 37.3163 301.078 37.6942 301.119 38.0973C301.164 38.5294 301.234 38.9584 301.328 39.382C301.705 41.5821 302.403 43.7089 303.4 45.6882C304.689 48.324 306.457 50.6738 308.606 52.6073L309.517 53.447C309.84 53.6989 310.178 53.934 310.517 54.1859C310.855 54.4378 311.178 54.6982 311.548 54.9081L312.661 55.563L313.225 55.8905L313.83 56.1676L315.039 56.7218C315.458 56.8982 315.893 57.0157 316.32 57.1753C316.749 57.3388 317.188 57.4734 317.634 57.5783C318.545 57.8232 319.471 58 320.407 58.1073C320.882 58.1577 321.358 58.2417 321.849 58.2669H323.316C323.558 58.2669 323.808 58.2669 324.05 58.2669L324.799 58.1997C325.291 58.1493 325.799 58.1241 326.299 58.057C327.314 57.89 328.319 57.6544 329.305 57.3516L330.055 57.1249L330.425 57.0073L330.796 56.8562L332.263 56.2348C332.747 55.9997 333.214 55.7226 333.69 55.4707C333.936 55.3497 334.175 55.2151 334.407 55.0676L335.084 54.6058C336.01 53.9877 336.893 53.3031 337.728 52.5569C338.131 52.1623 338.534 51.7172 338.937 51.3477L339.235 51.0455L339.509 50.7096L340.065 50.0462L340.613 49.3661L341.105 48.6439L341.597 47.9134L341.847 47.5439L342.064 47.1576L342.87 45.5874L343.579 43.908C345.414 39.2961 345.751 34.1858 344.539 29.356C344.369 28.7766 344.208 28.1888 344.047 27.6094L343.394 25.93L343.233 25.5101L343.031 25.1155L342.636 24.3262L342.242 23.5368L341.782 22.7979L341.315 22.0506L341.089 21.6895L340.823 21.3452L339.783 19.9765C339.044 19.1289 338.252 18.3323 337.413 17.5917L336.801 17.0375C336.591 16.8528 336.358 16.7101 336.148 16.5421C335.697 16.223 335.269 15.8872 334.826 15.5933L333.44 14.7536L333.101 14.552C332.983 14.4891 332.862 14.433 332.739 14.3841L332.021 14.0482C331.083 13.6173 330.119 13.2498 329.136 12.9482C328.652 12.8054 328.152 12.7131 327.669 12.5955L326.935 12.4276C326.694 12.3772 326.444 12.3604 326.202 12.3268L324.743 12.1505C324.259 12.1085 323.776 12.1505 323.3 12.1085C322.361 12.0922 321.421 12.1399 320.487 12.2512C320.03 12.3009 319.575 12.3766 319.125 12.478C318.682 12.5703 318.238 12.6375 317.803 12.7551L316.53 13.1413L315.901 13.3345L315.304 13.578L314.12 14.0734C313.725 14.2329 313.37 14.4681 312.999 14.6528C312.629 14.8375 312.266 15.0391 311.919 15.2406L310.912 15.9207C308.541 17.5495 306.494 19.6393 304.883 22.0758C303.647 23.9024 302.687 25.916 302.038 28.046C301.893 28.4531 301.769 28.868 301.667 29.2888C301.581 29.6806 301.5 30.0501 301.425 30.3972C301.352 30.7499 301.272 31.0606 301.223 31.3545C301.175 31.6483 301.159 31.9254 301.127 32.1942C301.07 32.6728 301.03 33.0339 300.998 33.2858C300.966 33.5377 300.941 33.6636 300.941 33.6636C300.941 33.6636 300.941 33.5377 300.941 33.2858C300.941 33.0339 300.998 32.6644 301.046 32.1858C301.046 31.9506 301.103 31.6735 301.135 31.3461C301.167 31.0186 301.256 30.7331 301.32 30.3888C301.385 30.0445 301.473 29.6667 301.554 29.2636C301.651 28.8394 301.772 28.4216 301.917 28.0124C302.552 25.8668 303.5 23.836 304.73 21.9918C306.345 19.5315 308.4 17.4189 310.783 15.7696L311.79 15.081C312.145 14.8711 312.516 14.6864 312.878 14.4849C313.241 14.2833 313.612 14.0566 314.007 13.8971L315.2 13.3932L315.804 13.1413L316.441 12.9482L317.723 12.5535C318.158 12.436 318.609 12.3688 319.061 12.2764C319.511 12.1641 319.969 12.0855 320.431 12.0413C321.372 11.9229 322.32 11.8724 323.268 11.8902C323.752 11.8902 324.243 11.8902 324.727 11.8902L326.202 12.0665C326.444 12.0665 326.693 12.1169 326.943 12.1673L327.677 12.3352C328.168 12.4528 328.668 12.5535 329.168 12.6963C330.163 12.9954 331.137 13.3629 332.086 13.7963L332.811 14.1322L333.166 14.3001L333.512 14.51L334.915 15.3497C335.366 15.652 335.801 15.9879 336.253 16.307C336.47 16.4749 336.704 16.6261 336.914 16.8108L337.534 17.365C338.391 18.1138 339.199 18.9218 339.952 19.7834C340.307 20.2368 340.654 20.6986 341.008 21.1605L341.274 21.5048L341.508 21.8742L341.975 22.6216L342.443 23.3773L342.846 24.217L343.249 25.0567L343.451 25.4598L343.612 25.8796L344.265 27.559C344.434 28.1468 344.595 28.7346 344.764 29.3224C345.348 31.7472 345.581 34.2489 345.457 36.7453C345.273 39.2343 344.73 41.6801 343.845 44.0004C343.604 44.563 343.37 45.1256 343.128 45.6798C342.886 46.234 342.556 46.7462 342.266 47.2668C342.193 47.4011 342.129 47.5355 342.056 47.6615L341.806 48.0309L341.307 48.7699L340.807 49.5088L340.251 50.189L339.694 50.8691L339.412 51.1966L339.106 51.5073L337.889 52.7332C337.042 53.4825 336.148 54.1726 335.213 54.7989L334.528 55.2607C334.294 55.4203 334.044 55.5295 333.802 55.6722C333.319 55.9241 332.851 56.2012 332.36 56.4363L330.869 57.0577L330.506 57.2173L330.127 57.3348L329.321 57.5699C328.327 57.8709 327.314 58.1038 326.29 58.2669C325.783 58.3425 325.275 58.3676 324.775 58.418L324.026 58.4852C323.776 58.4852 323.526 58.4852 323.276 58.4852H321.793C321.301 58.4852 320.826 58.376 320.342 58.3257C319.399 58.2129 318.465 58.0333 317.545 57.7883C317.095 57.6767 316.651 57.5393 316.215 57.3768C315.78 57.2173 315.345 57.0913 314.926 56.915L313.701 56.344L313.104 56.0669L312.532 55.7394L311.411 55.076C311.041 54.8661 310.718 54.5806 310.372 54.3455C310.025 54.1104 309.687 53.8501 309.364 53.5981L308.453 52.7584C306.296 50.7993 304.522 48.4242 303.23 45.7637C302.244 43.7653 301.557 41.6217 301.191 39.4072C301.127 38.9538 301.006 38.5255 300.99 38.1224C300.974 37.7194 300.933 37.3331 300.901 36.9721C300.869 36.611 300.845 36.2919 300.837 35.998C300.829 35.7041 300.837 35.427 300.837 35.1583C300.837 34.6797 300.837 34.3186 300.837 34.0499C300.837 33.7812 300.941 33.672 300.941 33.672Z" fill="#EBEBEB"/>
<path d="M333.351 35.6873C333.084 35.7267 332.815 35.7436 332.545 35.7377L330.385 35.7797C328.547 35.7797 325.992 35.8301 323.131 35.8301H322.962V34.1507C322.962 30.7919 322.962 27.7521 322.962 25.5521C322.962 24.4941 322.962 23.6124 323.01 22.949C323 22.6288 323.018 22.3083 323.066 21.9918C323.109 22.3089 323.128 22.6289 323.123 22.949C323.123 23.6124 323.123 24.4941 323.123 25.5521C323.123 27.7521 323.171 30.7919 323.171 34.1507V35.6537L323.026 35.5026C325.912 35.5026 328.467 35.5026 330.28 35.553H332.44C332.748 35.5562 333.055 35.6013 333.351 35.6873Z" fill="#E0E0E0"/>
<path d="M323.195 15.6017C323.339 16.2395 323.388 16.8965 323.341 17.5498C323.388 18.203 323.339 18.8601 323.195 19.4979C323.052 18.8601 323.003 18.203 323.05 17.5498C323.003 16.8965 323.052 16.2395 323.195 15.6017Z" fill="#E0E0E0"/>
<path d="M333.335 18.7253C333.009 19.2736 332.604 19.7664 332.134 20.1864C331.734 20.6788 331.26 21.1012 330.732 21.4376C331.055 20.8869 331.46 20.3936 331.933 19.9765C332.336 19.487 332.809 19.065 333.335 18.7253Z" fill="#E0E0E0"/>
<path d="M339.259 25.4765C338.791 25.8919 338.277 26.2471 337.728 26.5346C337.229 26.9131 336.688 27.2262 336.116 27.4666C337.002 26.5597 338.078 25.8786 339.259 25.4765Z" fill="#E0E0E0"/>
<path d="M342.733 35.4858C341.04 35.6762 339.332 35.6762 337.639 35.4858C339.332 35.2843 341.041 35.2843 342.733 35.4858Z" fill="#E0E0E0"/>
<path d="M307.397 35.1247C305.791 35.3283 304.167 35.3283 302.561 35.1247C304.168 34.9324 305.791 34.9324 307.397 35.1247Z" fill="#E0E0E0"/>
<path d="M309.896 42.5813C308.75 43.8026 307.467 44.8767 306.076 45.7805C306.625 45.1566 307.236 44.5938 307.897 44.1011C308.508 43.5193 309.178 43.0095 309.896 42.5813Z" fill="#E0E0E0"/>
<path d="M316.062 48.3416C315.704 49.118 315.289 49.8647 314.821 50.5752C314.439 51.3409 314 52.0738 313.507 52.7668C314.076 51.1335 314.944 49.6307 316.062 48.3416Z" fill="#E0E0E0"/>
<path d="M323.195 55.7814C323.051 54.9026 323.002 54.0097 323.05 53.1195C323.002 52.2322 323.051 51.342 323.195 50.4661C323.34 51.342 323.388 52.2322 323.34 53.1195C323.388 54.0097 323.34 54.9026 323.195 55.7814Z" fill="#E0E0E0"/>
<path d="M334.181 52.2378C332.666 51.4149 331.359 50.2292 330.369 48.7783C331.034 49.3202 331.669 49.9005 332.271 50.5164C332.938 51.0533 333.575 51.628 334.181 52.2378Z" fill="#E0E0E0"/>
<path d="M339.34 46.4523C338.714 46.0155 338.145 45.4962 337.647 44.9072C337.083 44.39 336.585 43.8003 336.164 43.1523C336.79 43.589 337.359 44.1084 337.857 44.6973C338.418 45.217 338.916 45.8064 339.34 46.4523Z" fill="#E0E0E0"/>
<path d="M309.662 27.9872C309.105 27.621 308.602 27.1712 308.171 26.6521C307.673 26.2028 307.241 25.6793 306.89 25.0987C307.447 25.4688 307.949 25.9214 308.381 26.4422C308.878 26.8896 309.309 27.4101 309.662 27.9872Z" fill="#E0E0E0"/>
<path d="M316.022 21.0093C315.476 20.6499 314.985 20.2085 314.563 19.6994C314.07 19.2618 313.644 18.7495 313.298 18.1795C313.847 18.5375 314.341 18.979 314.765 19.4895C315.253 19.9288 315.677 20.441 316.022 21.0093Z" fill="#E0E0E0"/>
<path d="M303.48 35.2759C303.481 29.4043 305.633 23.7545 309.499 19.4812C313.364 15.2079 318.649 12.6337 324.275 12.2848C323.84 12.2848 323.405 12.2345 322.962 12.2345C317.096 12.2345 311.47 14.662 307.323 18.9831C303.175 23.3042 300.845 29.1649 300.845 35.2759C300.845 41.3868 303.175 47.2475 307.323 51.5686C311.47 55.8897 317.096 58.3173 322.962 58.3173C323.405 58.3173 323.84 58.3173 324.275 58.3173C318.642 57.9659 313.35 55.384 309.484 51.1004C305.618 46.8168 303.47 41.1555 303.48 35.2759Z" fill="#F5F5F5"/>
<path d="M76.8856 14.7536H14.6211V117.264H76.8856V14.7536Z" fill="#E0E0E0"/>
<path d="M74.9915 16.6849H16.2976V115.585H74.9915V16.6849Z" fill="#F5F5F5"/>
<path d="M69.0592 22.4452H45.6526V60.2822H69.0592V22.4452Z" fill="white"/>
<path d="M58.5891 25.7872C58.5907 25.9686 58.5405 26.1464 58.445 26.298C58.3494 26.4496 58.2128 26.5682 58.0524 26.6388C57.892 26.7094 57.7151 26.7287 57.5442 26.6943C57.3732 26.66 57.2159 26.5735 57.0922 26.4458C56.9686 26.3181 56.8841 26.1551 56.8495 25.9773C56.815 25.7995 56.8319 25.6151 56.8981 25.4473C56.9644 25.2796 57.077 25.1362 57.2216 25.0352C57.3663 24.9343 57.5364 24.8804 57.7105 24.8804C57.9421 24.8803 58.1644 24.9756 58.329 25.1455C58.4935 25.3153 58.587 25.5459 58.5891 25.7872Z" fill="#E0E0E0"/>
<path d="M45.4672 70.812H22.0605V108.649H45.4672V70.812Z" fill="white"/>
<path d="M35.0051 74.154C35.0051 74.3334 34.9541 74.5087 34.8584 74.6579C34.7628 74.807 34.6268 74.9232 34.4678 74.9919C34.3087 75.0605 34.1337 75.0785 33.9648 75.0435C33.7959 75.0085 33.6408 74.9221 33.5191 74.7953C33.3973 74.6685 33.3145 74.5069 33.2809 74.331C33.2473 74.155 33.2645 73.9727 33.3304 73.807C33.3963 73.6413 33.5079 73.4996 33.651 73.4C33.7942 73.3003 33.9625 73.2472 34.1346 73.2472C34.3655 73.2472 34.5869 73.3427 34.7501 73.5128C34.9134 73.6828 35.0051 73.9135 35.0051 74.154Z" fill="#E0E0E0"/>
<path d="M41.7355 22.4452H21.7463V51.9943H41.7355V22.4452Z" fill="white"/>
<path d="M32.4662 25.1575C32.4662 25.3069 32.4236 25.453 32.3439 25.5773C32.2642 25.7016 32.1509 25.7985 32.0184 25.8557C31.8858 25.9129 31.74 25.9278 31.5992 25.8987C31.4585 25.8695 31.3293 25.7975 31.2278 25.6918C31.1264 25.5861 31.0573 25.4515 31.0293 25.3049C31.0013 25.1583 31.0157 25.0063 31.0706 24.8682C31.1255 24.7302 31.2185 24.6121 31.3378 24.5291C31.4571 24.446 31.5973 24.4017 31.7408 24.4017C31.9332 24.4017 32.1177 24.4813 32.2537 24.6231C32.3898 24.7648 32.4662 24.957 32.4662 25.1575Z" fill="#E0E0E0"/>
<path d="M69.8252 71.2919L48.4485 73.8056L49.7856 86.1464L71.1623 83.6327L69.8252 71.2919Z" fill="white"/>
<path d="M60.1285 74.9266C60.1285 75.0794 60.0851 75.2287 60.0036 75.3558C59.9221 75.4828 59.8063 75.5818 59.6708 75.6403C59.5353 75.6987 59.3862 75.714 59.2424 75.6842C59.0985 75.6544 58.9664 75.5809 58.8627 75.4728C58.759 75.3648 58.6884 75.2271 58.6598 75.0773C58.6312 74.9274 58.6458 74.7721 58.7019 74.6309C58.7581 74.4898 58.8531 74.3691 58.9751 74.2842C59.097 74.1993 59.2404 74.154 59.387 74.154C59.5837 74.154 59.7723 74.2354 59.9114 74.3803C60.0505 74.5252 60.1285 74.7217 60.1285 74.9266Z" fill="#E0E0E0"/>
<path d="M42.3399 79.4358C42.3399 79.5365 38.6645 79.6205 34.1347 79.6205C29.6049 79.6205 25.9294 79.5365 25.9294 79.4358C25.9294 79.335 29.6049 79.2594 34.1347 79.2594C38.6645 79.2594 42.3399 79.3434 42.3399 79.4358Z" fill="#E0E0E0"/>
<path d="M42.3399 82.148C42.3399 82.2488 38.6645 82.3243 34.1347 82.3243C29.6049 82.3243 25.9294 82.2488 25.9294 82.148C25.9294 82.0472 29.6049 81.9633 34.1347 81.9633C38.6645 81.9633 42.3399 82.0472 42.3399 82.148Z" fill="#E0E0E0"/>
<path d="M42.3399 84.8518C42.3399 84.9526 38.6645 85.0366 34.1347 85.0366C29.6049 85.0366 25.9294 84.9526 25.9294 84.8518C25.9294 84.7511 29.6049 84.6755 34.1347 84.6755C38.6645 84.6755 42.3399 84.7762 42.3399 84.8518Z" fill="#E0E0E0"/>
<path d="M42.3399 87.5641C42.3399 87.6648 38.6645 87.7404 34.1347 87.7404C29.6049 87.7404 25.9294 87.6648 25.9294 87.5641C25.9294 87.4633 29.6049 87.3793 34.1347 87.3793C38.6645 87.3793 42.3399 87.4633 42.3399 87.5641Z" fill="#E0E0E0"/>
<path d="M42.3399 90.2679C42.3399 90.3687 38.6645 90.4526 34.1347 90.4526C29.6049 90.4526 25.9294 90.3687 25.9294 90.2679C25.9294 90.1671 29.6049 90.0832 34.1347 90.0832C38.6645 90.0832 42.3399 90.1671 42.3399 90.2679Z" fill="#E0E0E0"/>
<path d="M42.3399 92.9717C42.3399 93.0725 38.6645 93.1565 34.1347 93.1565C29.6049 93.1565 25.9294 93.0725 25.9294 92.9717C25.9294 92.871 29.6049 92.7954 34.1347 92.7954C38.6645 92.7954 42.3399 92.871 42.3399 92.9717Z" fill="#E0E0E0"/>
<path d="M42.3399 95.6924C42.3399 95.7931 38.6645 95.8687 34.1347 95.8687C29.6049 95.8687 25.9294 95.7931 25.9294 95.6924C25.9294 95.5916 29.6049 95.5076 34.1347 95.5076C38.6645 95.5076 42.3399 95.5832 42.3399 95.6924Z" fill="#E0E0E0"/>
<path d="M67.8181 76.5388C67.8181 76.6395 64.2072 77.2525 59.7177 77.9159C55.2282 78.5793 51.577 79.0327 51.5608 78.9319C51.5447 78.8312 55.1798 78.2182 59.6693 77.5548C64.1588 76.8914 67.802 76.438 67.8181 76.5388Z" fill="#E0E0E0"/>
<path d="M68.1484 78.235C68.1484 78.3358 64.5294 78.9487 60.04 79.6037C55.5505 80.2587 51.9073 80.7205 51.8912 80.6197C51.875 80.519 55.5021 79.906 59.9513 79.251C64.4005 78.5961 68.1323 78.1342 68.1484 78.235Z" fill="#E0E0E0"/>
<path d="M68.4468 79.7968C68.4468 79.8976 64.8278 80.5106 60.3383 81.1739C55.8488 81.8373 52.2056 82.2823 52.1895 82.19C52.1734 82.0976 55.8004 81.4678 60.2899 80.8129C64.7794 80.1579 68.4307 79.7381 68.4468 79.7968Z" fill="#E0E0E0"/>
<path d="M66.9958 30.3636C66.9958 30.4644 62.8449 30.5399 57.7186 30.5399C52.5924 30.5399 48.4495 30.4644 48.4495 30.3636C48.4495 30.2628 52.6004 30.1789 57.7186 30.1789C62.8368 30.1789 66.9958 30.2628 66.9958 30.3636Z" fill="#E0E0E0"/>
<path d="M66.9958 31.9674C66.9958 32.0682 62.8449 32.1522 57.7186 32.1522C52.5924 32.1522 48.4495 32.0682 48.4495 31.9674C48.4495 31.8667 52.6004 31.7911 57.7186 31.7911C62.8368 31.7911 66.9958 31.8751 66.9958 31.9674Z" fill="#E0E0E0"/>
<path d="M66.9958 33.5545C66.9958 33.6552 62.8449 33.7392 57.7186 33.7392C52.5924 33.7392 48.4495 33.6552 48.4495 33.5545C48.4495 33.4537 52.6004 33.3697 57.7186 33.3697C62.8368 33.3697 66.9958 33.4789 66.9958 33.5545Z" fill="#E0E0E0"/>
<path d="M66.9958 35.2339C66.9958 35.3346 62.8449 35.4102 57.7186 35.4102C52.5924 35.4102 48.4495 35.3346 48.4495 35.2339C48.4495 35.1331 52.6004 35.0491 57.7186 35.0491C62.8368 35.0491 66.9958 35.0911 66.9958 35.2339Z" fill="#E0E0E0"/>
<path d="M66.9958 36.7957C66.9958 36.8965 62.8449 36.9804 57.7186 36.9804C52.5924 36.9804 48.4495 36.8965 48.4495 36.7957C48.4495 36.6949 52.6004 36.6194 57.7186 36.6194C62.8368 36.6194 66.9958 36.6949 66.9958 36.7957Z" fill="#E0E0E0"/>
<path d="M66.9958 38.4079C66.9958 38.5087 62.8449 38.5927 57.7186 38.5927C52.5924 38.5927 48.4495 38.5087 48.4495 38.4079C48.4495 38.3072 52.6004 38.2232 57.7186 38.2232C62.8368 38.2232 66.9958 38.3072 66.9958 38.4079Z" fill="#E0E0E0"/>
<path d="M66.9958 40.0202C66.9958 40.1209 62.8449 40.1965 57.7186 40.1965C52.5924 40.1965 48.4495 40.1209 48.4495 40.0202C48.4495 39.9194 52.6004 39.8354 57.7186 39.8354C62.8368 39.8354 66.9958 39.9194 66.9958 40.0202Z" fill="#E0E0E0"/>
<path d="M66.9958 44.7897C66.9958 44.8904 62.8449 44.9744 57.7186 44.9744C52.5924 44.9744 48.4495 44.8904 48.4495 44.7897C48.4495 44.6889 52.6004 44.6133 57.7186 44.6133C62.8368 44.6133 66.9958 44.6973 66.9958 44.7897Z" fill="#E0E0E0"/>
<path d="M67.1248 46.4943C67.1248 46.595 62.9738 46.679 57.8556 46.679C52.7374 46.679 48.5784 46.595 48.5784 46.4943C48.5784 46.3935 52.7293 46.3095 57.8556 46.3095C62.9818 46.3095 67.1248 46.3935 67.1248 46.4943Z" fill="#E0E0E0"/>
<path d="M67.2539 48.1905C67.2539 48.2912 63.1029 48.3752 57.9847 48.3752C52.8666 48.3752 48.7075 48.2912 48.7075 48.1905C48.7075 48.0897 52.8585 48.0141 57.9847 48.0141C63.111 48.0141 67.2539 48.0897 67.2539 48.1905Z" fill="#E0E0E0"/>
<path d="M67.3828 49.8951C67.3828 49.9958 63.2318 50.0714 58.1136 50.0714C52.9955 50.0714 48.8445 49.9958 48.8445 49.8951C48.8445 49.7943 52.9955 49.7103 58.1136 49.7103C63.2318 49.7103 67.3828 49.7943 67.3828 49.8951Z" fill="#E0E0E0"/>
<path d="M67.5198 51.5913C67.5198 51.692 63.3688 51.776 58.2425 51.776C53.1163 51.776 48.9734 51.692 48.9734 51.5913C48.9734 51.4905 53.1244 51.4149 58.2425 51.4149C63.3607 51.4149 67.5198 51.4905 67.5198 51.5913Z" fill="#E0E0E0"/>
<path d="M67.6487 53.2958C67.6487 53.3966 63.4977 53.4722 58.3715 53.4722C53.2452 53.4722 49.1023 53.3966 49.1023 53.2958C49.1023 53.1951 53.2533 53.1111 58.3715 53.1111C63.4896 53.1111 67.6487 53.1951 67.6487 53.2958Z" fill="#E0E0E0"/>
<path d="M370.992 377.782C370.992 377.908 287.973 378 185.504 378C83.0355 378 0 377.908 0 377.782C0 377.656 83.0194 377.563 185.504 377.563C287.989 377.563 370.992 377.664 370.992 377.782Z" fill="#263238"/>
<path d="M271.135 16.433H101.775C97.6623 16.433 94.3279 19.9067 94.3279 24.1918V281.132C94.3279 285.417 97.6623 288.891 101.775 288.891H271.135C275.248 288.891 278.583 285.417 278.583 281.132V24.1918C278.583 19.9067 275.248 16.433 271.135 16.433Z" fill="#E0E0E0"/>
<path d="M271.143 288.891L271.715 288.849C273.214 288.744 274.645 288.157 275.81 287.169C276.806 286.317 277.574 285.213 278.042 283.962C278.324 283.213 278.487 282.422 278.526 281.619C278.526 280.779 278.526 279.864 278.526 278.932C278.526 277.043 278.526 274.985 278.526 272.76C278.526 268.301 278.526 263.154 278.526 257.368C278.526 234.201 278.526 200.68 278.47 159.266C278.47 138.559 278.47 115.87 278.47 91.5191C278.47 79.3434 278.47 66.7647 278.47 53.7829V34.0163C278.47 30.6575 278.47 27.2987 278.47 23.9399C278.424 22.2644 277.845 20.6523 276.823 19.3572C275.802 18.062 274.396 17.1574 272.828 16.7856C272.031 16.624 271.22 16.5592 270.409 16.5925H101.8C99.9355 16.5902 98.1422 17.3355 96.7915 18.6738C95.4408 20.0121 94.6365 21.8407 94.5454 23.7803C94.5051 27.6934 94.5454 31.6232 94.5454 35.5362C94.5454 43.3398 94.5454 51.0902 94.5454 58.7875V104.257C94.5454 134.058 94.5454 162.81 94.5454 190.192C94.5454 217.575 94.5454 243.597 94.5454 267.949C94.5454 270.997 94.5454 274.011 94.5454 277.009C94.5454 278.495 94.5454 279.998 94.5454 281.468C94.6017 282.919 95.056 284.323 95.8545 285.514C96.653 286.704 97.7623 287.631 99.051 288.186C99.6837 288.453 100.348 288.631 101.026 288.715C101.703 288.773 102.404 288.765 103.089 288.765H111.31H142.511L236.678 288.824H262.277H268.934H271.199C271.199 288.824 270.393 288.824 268.934 288.824H262.277H236.678L142.511 288.882H103.033C102.348 288.882 101.654 288.882 100.945 288.832C100.238 288.744 99.544 288.56 98.8817 288.286C97.5542 287.709 96.4091 286.755 95.5771 285.532C94.7442 284.298 94.2687 282.841 94.2069 281.334C94.1666 279.839 94.2069 278.361 94.2069 276.866V267.949C94.2069 243.597 94.2069 217.567 94.2069 190.192C94.2069 162.818 94.2069 134.058 94.2069 104.257C94.2069 89.361 94.2069 74.21 94.2069 58.8043V35.553C94.2069 31.6483 94.2069 27.7437 94.2069 23.7971C94.3002 21.7573 95.1448 19.8335 96.565 18.4259C97.9852 17.0183 99.8716 16.2353 101.832 16.2398H270.369C271.204 16.2066 272.04 16.2743 272.86 16.4414C274.504 16.8385 275.979 17.7851 277.059 19.1368C278.115 20.4918 278.715 22.1702 278.768 23.9147C278.768 27.2735 278.768 30.6323 278.768 33.9911C278.768 40.6639 278.768 47.2444 278.768 53.7325C278.768 66.7087 278.768 79.2874 278.768 91.4687C278.768 115.82 278.768 138.492 278.768 159.216C278.768 200.63 278.728 234.151 278.711 257.318C278.711 263.104 278.711 268.234 278.711 272.71C278.711 274.935 278.711 276.992 278.711 278.882C278.711 279.822 278.711 280.712 278.711 281.569C278.668 282.381 278.5 283.18 278.212 283.937C277.738 285.198 276.957 286.309 275.947 287.161C275.226 287.765 274.407 288.229 273.529 288.53C272.984 288.695 272.425 288.802 271.86 288.849L271.143 288.891Z" fill="#263238"/>
<g opacity="0.3">
<path d="M110.408 282.736H265.049L263.357 249.223V231.388L110.408 256.285V282.736Z" fill="black"/>
</g>
<g opacity="0.3">
<path d="M232.954 16.9872L236.468 27.8529V33.1682H232.503L232.954 16.9872Z" fill="black"/>
</g>
<path d="M102.549 27.3491V277.63H227.876H270.369V27.3491H102.549Z" fill="white"/>
<path d="M270.369 232.874C270.369 232.874 270.369 232.555 270.369 231.917C270.369 231.279 270.369 230.322 270.369 229.071C270.369 226.551 270.369 222.84 270.369 217.995C270.369 208.296 270.369 194.089 270.321 176.06C270.321 139.953 270.321 88.6053 270.256 27.3491L270.418 27.517H102.597L102.775 27.3239V27.5506C102.775 123.764 102.775 211.622 102.775 277.605L102.638 277.463L194.257 277.53L102.638 277.597H102.501V277.454C102.501 211.47 102.501 123.612 102.501 27.3995V26.988H102.678H270.498H270.659V27.1476C270.659 88.4458 270.611 139.785 270.595 175.859C270.595 193.887 270.595 208.095 270.547 217.793C270.547 222.638 270.547 226.358 270.547 228.869C270.547 230.12 270.547 231.069 270.547 231.716C270.547 232.362 270.369 232.874 270.369 232.874Z" fill="#263238"/>
<path d="M153.143 9.64817H227.86C229.209 9.65483 230.501 10.2178 231.452 11.2139C232.404 12.21 232.938 13.5581 232.938 14.9635V35.2675H148.041V14.9635C148.041 14.2655 148.172 13.5743 148.429 12.9294C148.685 12.2845 149.061 11.6986 149.535 11.205C150.009 10.7114 150.571 10.3199 151.19 10.0528C151.809 9.78566 152.473 9.64817 153.143 9.64817Z" fill="#263238"/>
<path d="M201.302 0H179.693L182.215 19.2963H198.497L201.302 0Z" fill="#263238"/>
<path d="M227.497 9.64817C227.497 9.75733 210.934 9.8329 190.501 9.8329C170.069 9.8329 153.497 9.75733 153.497 9.64817C153.497 9.53901 170.061 9.46344 190.501 9.46344C210.942 9.46344 227.497 9.5474 227.497 9.64817Z" fill="#455A64"/>
<path d="M149.943 31.1697C149.846 31.1697 149.765 27.5422 149.765 23.0666C149.765 18.591 149.846 14.9551 149.943 14.9551C150.039 14.9551 150.12 18.5826 150.12 23.0666C150.12 27.5506 150.039 31.1697 149.943 31.1697Z" fill="#455A64"/>
<path d="M230.206 29.2468C230.109 29.2468 230.028 25.9552 230.028 21.891C230.028 17.8269 230.109 14.5268 230.206 14.5268C230.302 14.5268 230.383 17.8269 230.383 21.891C230.383 25.9552 230.27 29.2468 230.206 29.2468Z" fill="#455A64"/>
<path d="M226.111 32.6644C226.111 32.7652 209.104 32.8491 188.132 32.8491C167.159 32.8491 150.144 32.7652 150.144 32.6644C150.144 32.5636 167.151 32.4797 188.132 32.4797C209.112 32.4797 226.111 32.5636 226.111 32.6644Z" fill="#455A64"/>
<path d="M249.123 75.38H156.439V81.3167H249.123V75.38Z" fill="#E0E0E0"/>
<path d="M198.489 87.5053H156.439V93.4H198.489V87.5053Z" fill="#E0E0E0"/>
<path d="M143.906 72.8525H128.696C126.978 72.8525 125.585 74.3036 125.585 76.0937V91.9389C125.585 93.729 126.978 95.1802 128.696 95.1802H143.906C145.624 95.1802 147.017 93.729 147.017 91.9389V76.0937C147.017 74.3036 145.624 72.8525 143.906 72.8525Z" fill="#038BFE"/>
<path d="M135.991 89.3274L129.986 84.4992L131.606 82.3159L135.628 85.5572L141.359 78.6968L143.35 80.5022L135.991 89.3274Z" fill="white"/>
<path d="M249.123 112.134H156.439V118.07H249.123V112.134Z" fill="#E0E0E0"/>
<path d="M198.489 124.251H156.439V130.145H198.489V124.251Z" fill="#E0E0E0"/>
<path d="M143.906 109.598H128.696C126.978 109.598 125.585 111.049 125.585 112.839V128.684C125.585 130.474 126.978 131.925 128.696 131.925H143.906C145.624 131.925 147.017 130.474 147.017 128.684V112.839C147.017 111.049 145.624 109.598 143.906 109.598Z" fill="#038BFE"/>
<path d="M135.991 126.073L129.986 121.244L131.606 119.061L135.628 122.303L141.359 115.442L143.35 117.248L135.991 126.073Z" fill="white"/>
<path d="M249.123 151.507H156.439V157.444H249.123V151.507Z" fill="#E0E0E0"/>
<path d="M198.489 163.624H156.439V169.519H198.489V163.624Z" fill="#E0E0E0"/>
<path d="M249.123 187.9H156.439V193.837H249.123V187.9Z" fill="#E0E0E0"/>
<path d="M198.489 200.025H156.439V205.92H198.489V200.025Z" fill="#E0E0E0"/>
<path d="M143.906 148.971H128.696C126.978 148.971 125.585 150.423 125.585 152.213V168.058C125.585 169.848 126.978 171.299 128.696 171.299H143.906C145.624 171.299 147.017 169.848 147.017 168.058V152.213C147.017 150.423 145.624 148.971 143.906 148.971Z" fill="#038BFE"/>
<path d="M135.991 165.446L129.986 160.618L131.606 158.435L135.628 161.676L141.359 154.816L143.35 156.621L135.991 165.446Z" fill="white"/>
<path d="M144.204 209.111H128.39C127.549 209.109 126.743 208.759 126.149 208.139C125.556 207.519 125.222 206.678 125.222 205.802V189.327C125.222 188.452 125.556 187.613 126.15 186.994C126.744 186.375 127.55 186.027 128.39 186.027H144.204C145.044 186.027 145.85 186.375 146.444 186.994C147.038 187.613 147.371 188.452 147.371 189.327V205.802C147.371 206.678 147.038 207.519 146.444 208.139C145.85 208.759 145.045 209.109 144.204 209.111ZM128.39 186.783C127.748 186.783 127.133 187.049 126.68 187.521C126.227 187.993 125.972 188.634 125.972 189.302V205.777C125.972 206.445 126.227 207.086 126.68 207.559C127.133 208.031 127.748 208.296 128.39 208.296H144.204C144.845 208.296 145.46 208.031 145.914 207.559C146.367 207.086 146.622 206.445 146.622 205.777V189.327C146.622 188.659 146.367 188.019 145.914 187.546C145.46 187.074 144.845 186.808 144.204 186.808L128.39 186.783Z" fill="#038BFE"/>
<path d="M249.123 229.541H156.439V235.477H249.123V229.541Z" fill="#E0E0E0"/>
<path d="M198.489 241.666H156.439V247.561H198.489V241.666Z" fill="#E0E0E0"/>
<path d="M144.204 250.743H128.39C127.55 250.743 126.744 250.396 126.15 249.777C125.556 249.158 125.222 248.318 125.222 247.443V230.968C125.222 230.092 125.556 229.252 126.149 228.632C126.743 228.012 127.549 227.662 128.39 227.66H144.204C145.045 227.662 145.85 228.012 146.444 228.632C147.038 229.252 147.371 230.092 147.371 230.968V247.443C147.371 248.318 147.038 249.158 146.444 249.777C145.85 250.396 145.044 250.743 144.204 250.743ZM128.39 228.424C127.748 228.424 127.133 228.689 126.68 229.162C126.227 229.634 125.972 230.275 125.972 230.943V247.418C125.972 248.086 126.227 248.727 126.68 249.199C127.133 249.672 127.748 249.937 128.39 249.937H144.204C144.845 249.937 145.46 249.672 145.914 249.199C146.367 248.727 146.622 248.086 146.622 247.418V230.968C146.622 230.3 146.367 229.659 145.914 229.187C145.46 228.715 144.845 228.449 144.204 228.449L128.39 228.424Z" fill="#038BFE"/>
<path d="M237.685 52.4058H145.284V60.6516H237.685V52.4058Z" fill="#038BFE"/>
<path d="M161.235 357.981C161.235 357.981 158.446 338.055 158.68 326.467C158.914 314.88 158.68 301.831 158.68 301.831H159.962C159.962 301.831 159.091 324.838 160.034 338.719C160.977 352.599 163.468 357.981 163.468 357.981H161.243" fill="#263238"/>
<path d="M169.521 279.419C169.319 278.713 168.91 278.091 168.352 277.639C167.917 277.421 167.44 277.308 166.958 277.308C166.475 277.308 165.998 277.421 165.563 277.639C161.686 279.066 158.253 286.59 156.697 290.545L161.839 308.59C171.117 299.639 172.721 287.875 169.521 279.419Z" fill="#455A64"/>
<path d="M168.046 278.369C168.033 278.451 168.009 278.53 167.973 278.605L167.724 279.259C167.498 279.822 167.183 280.653 166.805 281.678C166.047 283.727 165.08 286.59 164.217 289.823C163.355 293.056 162.766 296.028 162.404 298.22C162.218 299.303 162.081 300.176 161.993 300.789C161.993 301.075 161.912 301.302 161.888 301.486C161.877 301.569 161.858 301.651 161.832 301.73C161.824 301.646 161.824 301.562 161.832 301.478C161.832 301.293 161.856 301.058 161.904 300.773C161.969 300.168 162.081 299.278 162.251 298.195C163.12 292.526 164.599 286.977 166.66 281.653C167.055 280.637 167.393 279.814 167.643 279.259L167.925 278.613L168.046 278.369Z" fill="#263238"/>
<path d="M159.55 312.94C157.21 311.553 155.252 309.563 153.863 307.16C152.474 304.757 151.701 302.023 151.619 299.219C151.434 295.214 152.619 291.276 153.957 287.522C154.039 287.184 154.233 286.887 154.505 286.682C154.723 286.599 154.958 286.575 155.188 286.612C155.417 286.648 155.634 286.745 155.819 286.892C159.317 288.966 161.461 292.93 162.565 296.969C163.382 299.641 163.656 302.46 163.371 305.248C162.93 308.178 161.593 310.882 159.559 312.957" fill="#455A64"/>
<path d="M159.55 312.94C159.54 312.859 159.54 312.777 159.55 312.696C159.55 312.512 159.55 312.285 159.55 311.999C159.55 311.403 159.55 310.53 159.478 309.48C159.339 306.688 159.04 303.906 158.583 301.151C158.043 297.918 157.398 295.021 156.923 292.93C156.681 291.905 156.488 291.066 156.351 290.453C156.286 290.176 156.238 289.949 156.197 289.773C156.19 289.694 156.19 289.616 156.197 289.537C156.234 289.609 156.261 289.685 156.278 289.764C156.326 289.94 156.383 290.159 156.463 290.428C156.617 291.007 156.842 291.847 157.1 292.888C157.616 294.97 158.285 297.867 158.825 301.109C159.282 303.884 159.552 306.69 159.631 309.506C159.631 310.58 159.631 311.454 159.631 312.025C159.631 312.302 159.631 312.528 159.631 312.713C159.614 312.792 159.587 312.868 159.55 312.94Z" fill="#263238"/>
<g opacity="0.3">
<path d="M159.55 312.94C157.21 311.553 155.252 309.563 153.863 307.16C152.474 304.757 151.701 302.023 151.619 299.219C151.434 295.214 152.619 291.276 153.957 287.522C154.039 287.184 154.233 286.887 154.505 286.682C154.723 286.599 154.958 286.575 155.188 286.612C155.417 286.648 155.634 286.745 155.819 286.892C159.317 288.966 161.461 292.93 162.565 296.969C163.382 299.641 163.656 302.46 163.371 305.248C162.93 308.178 161.593 310.882 159.559 312.957" fill="black"/>
</g>
<path d="M164.983 343.404C169.73 344.487 173.631 347.972 178.21 349.668C181.24 350.794 184.658 351.188 187.076 353.397C186.495 351.868 185.125 350.878 183.787 349.979C180.018 347.532 175.998 345.532 171.802 344.017C169.65 343.245 167.312 342.598 165.12 343.236" fill="#455A64"/>
<path d="M158.124 347.821C152.183 347.72 145.929 342.455 140.021 342.145C146.211 340.062 155.069 341.758 158.124 347.821Z" fill="#455A64"/>
<path d="M160.445 332.975C163.51 331.935 166.776 331.704 169.948 332.303C173.103 332.908 176.203 333.787 179.217 334.932C178.911 332.782 177.242 331.17 175.671 329.742C174.525 328.629 173.281 327.631 171.955 326.761C170.616 325.89 169.068 325.433 167.49 325.443C166.543 325.508 165.62 325.772 164.774 326.218C163.927 326.664 163.176 327.283 162.565 328.038C161.368 329.403 160.628 331.135 160.453 332.975" fill="#455A64"/>
<path d="M148.258 326.148C144.518 322.79 138.852 323.142 133.935 323.26C141.826 327.182 149.266 332.019 156.117 337.678C156.342 334.058 152.981 330.347 148.258 326.148Z" fill="#455A64"/>
<g opacity="0.3">
<path d="M148.258 326.148C144.518 322.79 138.852 323.142 133.935 323.26C141.826 327.182 149.266 332.019 156.117 337.678C156.342 334.058 152.981 330.347 148.258 326.148Z" fill="black"/>
</g>
<path d="M162.13 321.572C163.952 320.251 165.874 319.086 167.877 318.087C169.851 317.155 171.681 315.677 173.583 314.603C176.05 313.209 178.185 311.244 180.45 309.564C182.715 307.885 185.198 306.281 187.962 305.828C185.685 305.405 183.343 305.546 181.127 306.239C178.915 306.93 176.759 307.803 174.679 308.851C171.762 310.219 168.795 311.622 166.41 313.838C164.024 316.055 161.872 318.255 162.122 321.58" fill="#455A64"/>
<path d="M178.105 347.821C178.105 347.821 178.032 347.821 177.912 347.737L177.396 347.46C176.944 347.208 176.308 346.847 175.493 346.419C175.099 346.2 174.687 345.974 174.172 345.739C173.656 345.504 173.18 345.243 172.632 345C171.451 344.449 170.227 344.005 168.973 343.673C167.73 343.31 166.42 343.276 165.16 343.572C164.61 343.691 164.071 343.86 163.548 344.076C163.093 344.264 162.655 344.497 162.243 344.773C161.652 345.169 161.11 345.64 160.631 346.175C160.284 346.562 160.115 346.797 160.099 346.788C160.13 346.723 160.168 346.661 160.211 346.604C160.321 346.437 160.44 346.278 160.566 346.125C161.035 345.554 161.577 345.054 162.178 344.639C162.594 344.352 163.034 344.105 163.492 343.9C164.016 343.682 164.555 343.505 165.104 343.371C166.393 343.06 167.737 343.089 169.013 343.455C170.278 343.79 171.511 344.245 172.697 344.815C173.245 345.067 173.769 345.319 174.244 345.571C174.72 345.823 175.163 346.049 175.558 346.284C176.364 346.721 176.993 347.124 177.428 347.384L177.928 347.704L178.105 347.821Z" fill="#263238"/>
<path d="M153.699 344.756C153.828 344.774 153.953 344.814 154.07 344.874C154.4 344.998 154.723 345.144 155.037 345.31C156.078 345.858 157.035 346.565 157.874 347.41C158.715 348.249 159.433 349.214 160.002 350.273C160.173 350.594 160.326 350.925 160.461 351.264C160.519 351.386 160.56 351.516 160.582 351.65C160.582 351.65 160.324 351.138 159.873 350.357C158.681 348.297 156.988 346.602 154.964 345.445C154.19 345 153.699 344.79 153.699 344.756Z" fill="#263238"/>
<path d="M140.553 325.838C140.641 325.852 140.728 325.877 140.811 325.913L141.52 326.174L142.64 326.61C143.084 326.778 143.559 327.03 144.099 327.274C146.883 328.622 149.483 330.35 151.829 332.413C153.108 333.559 154.312 334.793 155.432 336.107C156.341 337.18 157.197 338.301 157.995 339.466C158.672 340.465 159.188 341.297 159.542 341.876L159.945 342.539C159.999 342.611 160.043 342.69 160.074 342.774C160.016 342.709 159.962 342.638 159.913 342.565C159.808 342.422 159.655 342.204 159.47 341.918C159.099 341.355 158.567 340.541 157.858 339.55C157.149 338.559 156.294 337.426 155.271 336.191C154.148 334.892 152.948 333.669 151.676 332.53C149.342 330.507 146.772 328.801 144.027 327.45C143.495 327.198 143.019 326.938 142.592 326.753L141.48 326.291L140.786 325.989L140.553 325.838Z" fill="#263238"/>
<path d="M169.36 329.499C169.2 329.498 169.04 329.479 168.884 329.44L168.344 329.331C168.126 329.289 167.885 329.289 167.611 329.255C166.521 329.153 165.422 329.305 164.395 329.698C163.368 330.092 162.437 330.718 161.67 331.531C161.218 331.997 160.817 332.515 160.477 333.076C160.168 333.593 159.898 334.135 159.671 334.697C159.684 334.528 159.725 334.363 159.792 334.21C159.94 333.785 160.129 333.377 160.357 332.992C160.688 332.41 161.086 331.871 161.541 331.388C162.423 330.473 163.505 329.796 164.695 329.417C165.885 329.038 167.146 328.968 168.368 329.213L168.916 329.356C169.07 329.381 169.219 329.429 169.36 329.499Z" fill="#263238"/>
<path d="M175.332 310.202C175.262 310.261 175.187 310.312 175.106 310.354L174.445 310.723C173.865 311.051 173.035 311.563 172.027 312.142C171.02 312.722 169.843 313.536 168.586 314.477C167.218 315.481 165.934 316.605 164.749 317.835C164.125 318.468 163.584 319.182 163.137 319.96C162.75 320.732 162.331 321.488 162.033 322.21C161.431 323.485 160.893 324.791 160.421 326.123C160.098 327.023 159.829 327.943 159.615 328.877C159.462 329.541 159.405 329.919 159.381 329.91C159.37 329.821 159.37 329.731 159.381 329.642C159.381 329.457 159.438 329.197 159.51 328.861C159.692 327.914 159.94 326.982 160.252 326.073C160.716 324.724 161.254 323.403 161.864 322.118C162.202 321.396 162.573 320.64 162.96 319.859C163.403 319.064 163.945 318.333 164.572 317.684C165.763 316.444 167.061 315.319 168.449 314.325C169.722 313.393 170.915 312.646 171.931 312.025C172.946 311.403 173.793 310.967 174.349 310.664L175.034 310.328L175.332 310.202Z" fill="#263238"/>
<path d="M158.672 328.945C158.619 328.775 158.582 328.601 158.559 328.424C158.487 328.038 158.398 327.584 158.301 326.988C157.741 323.843 156.793 320.786 155.48 317.894L154.9 316.567C154.82 316.409 154.756 316.243 154.706 316.072C154.811 316.215 154.9 316.37 154.972 316.534C155.133 316.836 155.351 317.273 155.609 317.827C156.304 319.262 156.894 320.75 157.374 322.277C157.841 323.81 158.199 325.376 158.446 326.963C158.535 327.576 158.607 328.063 158.64 328.407C158.668 328.585 158.679 328.765 158.672 328.945Z" fill="#263238"/>
<path d="M158.245 314.854C158.063 312.498 157.404 310.208 156.31 308.137C154.845 305.301 152.801 302.833 150.323 300.908C147.844 298.983 144.991 297.647 141.963 296.994L155.246 317.617L156.963 321.303C158.038 319.351 158.487 317.091 158.245 314.854Z" fill="#455A64"/>
<path d="M177.299 355.513H146.412V361.214H177.299V355.513Z" fill="#038BFE"/>
<path d="M148.718 360.089L151.345 377.782H171.858L174.994 360.089H148.718Z" fill="#038BFE"/>
<path d="M177.283 361.223C177.283 361.29 170.319 361.34 161.727 361.34C153.135 361.34 146.163 361.29 146.163 361.223C146.163 361.156 153.127 361.114 161.727 361.114C170.327 361.114 177.283 361.164 177.283 361.223Z" fill="#263238"/>
<path d="M291.527 157.15L289.915 153.103C291.149 149.111 290.905 144.783 289.231 140.97C287.558 137.156 284.575 134.133 280.87 132.495C277.164 130.856 273.005 130.721 269.209 132.116C265.413 133.511 262.255 136.335 260.357 140.032C258.458 143.73 257.956 148.034 258.949 152.098C259.942 156.161 262.359 159.691 265.724 161.992C269.088 164.294 273.158 165.201 277.132 164.535C281.106 163.869 284.697 161.678 287.199 158.393L291.527 157.15Z" fill="white"/>
<path d="M291.527 157.15L291.261 157.243L290.455 157.494L287.231 158.485C287.222 158.488 287.212 158.488 287.202 158.487C287.192 158.485 287.183 158.481 287.175 158.476C287.166 158.47 287.159 158.463 287.154 158.455C287.148 158.446 287.144 158.437 287.142 158.426C287.138 158.419 287.136 158.41 287.136 158.401C287.136 158.392 287.138 158.384 287.142 158.376L287.279 158.452C285.666 160.63 283.562 162.361 281.154 163.49C279.574 164.212 277.896 164.674 276.181 164.859C274.224 165.059 272.248 164.883 270.353 164.338C268.254 163.732 266.292 162.696 264.582 161.29C262.72 159.784 261.202 157.865 260.141 155.672C259.018 153.323 258.42 150.739 258.392 148.115C258.387 145.355 259.028 142.635 260.258 140.19C261.488 137.746 263.271 135.65 265.453 134.084C267.552 132.599 269.952 131.64 272.465 131.279C274.825 130.941 277.228 131.165 279.493 131.934C281.582 132.628 283.517 133.75 285.184 135.234C286.688 136.573 287.942 138.19 288.883 140.003L289.472 141.288C289.657 141.716 289.786 142.128 289.939 142.581C290.218 143.401 290.428 144.244 290.568 145.1C291.015 147.792 290.821 150.557 290.004 153.153V153.103C290.511 154.413 290.906 155.429 291.18 156.151L291.479 156.923C291.516 157.007 291.546 157.094 291.567 157.184C291.523 157.094 291.482 157.001 291.446 156.907C291.358 156.713 291.253 156.453 291.108 156.126C290.818 155.429 290.399 154.446 289.859 153.162V153.111C290.632 150.534 290.793 147.799 290.326 145.142C290.183 144.302 289.97 143.476 289.689 142.674C289.536 142.262 289.407 141.834 289.222 141.414C289.037 140.994 288.835 140.574 288.634 140.155C287.7 138.379 286.462 136.797 284.982 135.486C283.338 134.046 281.437 132.959 279.389 132.287C277.172 131.539 274.821 131.323 272.513 131.657C270.058 132.018 267.714 132.96 265.662 134.411C263.53 135.941 261.788 137.989 260.587 140.378C259.386 142.768 258.762 145.426 258.771 148.123C258.793 150.68 259.372 153.198 260.463 155.488C261.5 157.635 262.981 159.516 264.8 160.996C266.471 162.377 268.389 163.399 270.442 164.002C272.299 164.546 274.236 164.731 276.156 164.548C277.847 164.376 279.503 163.934 281.065 163.238C283.445 162.153 285.538 160.485 287.167 158.376C287.173 158.369 287.181 158.363 287.19 158.359C287.199 158.355 287.209 158.353 287.219 158.353C287.229 158.353 287.238 158.355 287.247 158.359C287.256 158.363 287.265 158.369 287.271 158.376C287.283 158.389 287.289 158.405 287.289 158.422C287.289 158.439 287.283 158.456 287.271 158.468L287.175 158.359L290.399 157.478L291.245 157.251C291.336 157.208 291.43 157.174 291.527 157.15Z" fill="#263238"/>
<path d="M269.12 150.281C270.09 150.281 270.877 149.462 270.877 148.451C270.877 147.44 270.09 146.62 269.12 146.62C268.149 146.62 267.363 147.44 267.363 148.451C267.363 149.462 268.149 150.281 269.12 150.281Z" fill="#263238"/>
<path d="M276.793 148.451C276.793 148.813 276.69 149.167 276.497 149.468C276.304 149.769 276.03 150.003 275.709 150.142C275.388 150.281 275.034 150.317 274.693 150.246C274.352 150.176 274.039 150.001 273.794 149.745C273.548 149.489 273.381 149.163 273.313 148.808C273.245 148.453 273.28 148.085 273.413 147.75C273.546 147.416 273.771 147.13 274.06 146.929C274.349 146.728 274.689 146.62 275.036 146.62C275.502 146.62 275.949 146.813 276.279 147.156C276.608 147.5 276.793 147.965 276.793 148.451Z" fill="#263238"/>
<path d="M280.799 150.281C281.77 150.281 282.556 149.462 282.556 148.451C282.556 147.44 281.77 146.62 280.799 146.62C279.829 146.62 279.042 147.44 279.042 148.451C279.042 149.462 279.829 150.281 280.799 150.281Z" fill="#263238"/>
<path d="M78.2237 122.638L78.9894 117.961C77.0923 114.503 76.5056 110.43 77.3449 106.543C78.1842 102.657 80.3887 99.2384 83.5249 96.9595C86.6611 94.6807 90.5022 93.7065 94.2929 94.2286C98.0836 94.7507 101.55 96.7313 104.01 99.7809C106.47 102.83 107.746 106.729 107.587 110.709C107.428 114.689 105.845 118.463 103.151 121.289C100.456 124.115 96.844 125.789 93.0247 125.981C89.2055 126.173 85.4554 124.87 82.5117 122.328L78.2237 122.638Z" fill="white"/>
<path d="M78.2236 122.638H78.4896L79.2956 122.596L82.5197 122.411C82.5353 122.409 82.5497 122.401 82.5601 122.389C82.5705 122.377 82.5762 122.361 82.5761 122.344L82.4874 122.428C84.4102 124.102 86.6998 125.256 89.1531 125.787C89.9292 125.952 90.7159 126.059 91.5067 126.106C91.9178 126.106 92.3127 126.106 92.7641 126.106C92.9737 126.106 93.1913 126.106 93.4008 126.106L94.0537 126.031C95.9171 125.821 97.7266 125.252 99.3895 124.351C102.939 122.398 105.62 119.082 106.864 115.106C108.108 111.13 107.818 106.805 106.055 103.048C105.485 101.87 104.781 100.768 103.96 99.7647C103.143 98.7714 102.218 97.8809 101.203 97.1112C100.201 96.3731 99.1191 95.7614 97.979 95.2891C95.7755 94.358 93.3925 93.9812 91.0231 94.1891C87.0998 94.5229 83.4492 96.4129 80.8246 99.4692C78.1999 102.525 76.8015 106.515 76.9178 110.614C76.9934 113.234 77.6942 115.794 78.9571 118.062V118.02C78.7233 119.54 78.546 120.715 78.4251 121.521L78.2962 122.411C78.2962 122.613 78.2962 122.705 78.2962 122.705C78.2962 122.705 78.2962 122.596 78.3606 122.386C78.4251 122.176 78.4493 121.874 78.5218 121.488C78.6588 120.69 78.8603 119.54 79.1263 118.045C79.1301 118.028 79.1301 118.011 79.1263 117.995C77.9053 115.738 77.2381 113.203 77.1838 110.614C77.0928 106.585 78.4835 102.672 81.0713 99.6761C83.6591 96.6804 87.2482 94.8286 91.1037 94.4998C93.4671 94.2922 95.844 94.6727 98.0386 95.61C100.233 96.5473 102.182 98.0145 103.726 99.8907C104.531 100.874 105.221 101.953 105.781 103.107C106.313 104.243 106.714 105.441 106.974 106.675C107.489 109.065 107.461 111.546 106.893 113.922C106.366 116.061 105.417 118.062 104.105 119.797C102.794 121.532 101.149 122.963 99.2767 123.998C97.6448 124.89 95.8685 125.46 94.0376 125.678L93.3928 125.762C93.1832 125.762 92.9737 125.762 92.7641 125.762C92.345 125.762 91.9581 125.762 91.5228 125.762C90.7431 125.729 89.967 125.634 89.2015 125.476C86.7703 124.957 84.4966 123.831 82.5761 122.193C82.5703 122.187 82.5632 122.181 82.5554 122.177C82.5476 122.174 82.5392 122.171 82.5306 122.171C82.5132 122.17 82.4962 122.177 82.4834 122.189C82.4706 122.201 82.4629 122.218 82.4621 122.236C82.4614 122.254 82.4676 122.272 82.4794 122.285L82.5277 122.176L79.3601 122.437L78.5541 122.512L78.2236 122.638Z" fill="#263238"/>
<path d="M85.647 111.193L87.3315 109.438L90.5717 112.444L96.9473 106.063L98.5109 107.809L90.338 115.828L85.647 111.193Z" fill="#038BFE"/>
<path d="M355.904 294.299C355.904 294.105 355.944 293.904 355.952 293.711C356.113 289.932 354.638 286.305 353.22 282.795C349.415 273.449 345.74 263.549 346.771 253.464C348.182 240.138 357.588 229.113 360.941 216.232C361.144 215.504 361.568 214.865 362.149 214.411C362.731 213.957 363.438 213.712 364.165 213.712C364.693 213.709 365.214 213.835 365.687 214.08C366.159 214.326 366.569 214.684 366.883 215.126C367.197 215.568 367.407 216.081 367.495 216.623C367.583 217.166 367.547 217.722 367.389 218.247C363.649 230.305 355.114 240.868 353.776 253.514C352.704 263.591 356.387 273.499 360.224 282.845C361.642 286.321 363.117 289.949 362.956 293.761C362.795 297.573 360.466 301.512 356.871 302.116H303.416C302.522 302.116 301.664 301.747 301.031 301.089C300.398 300.431 300.041 299.538 300.039 298.606V297.851C300.04 297.39 300.128 296.933 300.298 296.508C300.469 296.083 300.718 295.696 301.031 295.371C301.345 295.046 301.717 294.788 302.126 294.613C302.535 294.438 302.974 294.348 303.416 294.349L355.904 294.299Z" fill="#455A64"/>
<path d="M366.656 377.782H289.109C288.565 377.777 288.03 377.637 287.549 377.372C287.068 377.108 286.655 376.727 286.345 376.262C285.961 375.704 285.709 375.059 285.609 374.381C285.51 373.702 285.566 373.009 285.772 372.357L307.857 301.822L309.01 302.217L286.901 372.794C286.754 373.256 286.713 373.747 286.781 374.228C286.85 374.71 287.026 375.167 287.296 375.565C287.495 375.868 287.762 376.118 288.074 376.291C288.385 376.465 288.732 376.559 289.085 376.564H366.656C366.999 376.56 367.337 376.471 367.641 376.304C367.945 376.138 368.206 375.899 368.405 375.607C368.675 375.226 368.857 374.786 368.938 374.32C369.019 373.854 368.997 373.375 368.872 372.92L349.891 302.259L351.059 301.915L370.033 372.559C370.209 373.202 370.24 373.878 370.126 374.536C370.011 375.194 369.753 375.816 369.372 376.354C369.055 376.794 368.646 377.152 368.174 377.399C367.703 377.647 367.183 377.778 366.656 377.782Z" fill="#E0E0E0"/>
<path d="M257.86 249.836C257.86 249.836 260.681 242.682 263.502 241.171C265.536 240.137 267.66 239.307 269.845 238.694H282.274L282.395 247.091C281.83 247.644 281.158 248.067 280.424 248.329C279.691 248.591 278.911 248.687 278.139 248.61C275.681 248.258 269.547 246.679 269.547 246.679L266.516 246.847L263.72 250.584C263.72 250.584 261.455 251.297 262.253 249.064L263.405 245.848C263.405 245.848 260.721 250.197 259.69 250.391C259.364 250.442 259.032 250.419 258.716 250.324C258.4 250.228 258.108 250.062 257.86 249.836Z" fill="#6F4439"/>
<path d="M309.203 222.865L299.313 237.677L282.242 238.694L282.008 246.813L294.904 249.458C298.197 250.134 301.598 249.967 304.816 248.972C308.033 247.978 310.971 246.185 313.378 243.749L315.224 225.846L309.203 222.865Z" fill="#AE7461"/>
<path d="M301.538 345.73L313.032 357.486C313.032 357.486 304.73 374.171 306.64 376.564L330.627 353.052L313.491 334.008L301.538 345.73Z" fill="#263238"/>
<path d="M319.52 349.148C319.801 348.988 320.129 348.944 320.44 349.025C320.751 349.106 321.021 349.305 321.197 349.584C321.337 349.888 321.364 350.236 321.272 350.559C321.179 350.882 320.974 351.157 320.697 351.331C320.399 351.502 320.05 351.548 319.721 351.461C319.392 351.374 319.106 351.159 318.923 350.861C318.809 350.527 318.818 350.16 318.95 349.832C319.081 349.505 319.324 349.24 319.633 349.089" fill="#E0E0E0"/>
<path d="M330.627 353.002L328.822 351.155L306.503 374.398C306.503 374.398 305.85 375.901 306.64 376.522L330.627 353.002Z" fill="#455A64"/>
<path d="M312.532 357.679C312.637 357.788 313.274 357.268 314.144 357.075C315.015 356.882 315.804 357.075 315.869 356.907C315.933 356.739 315.16 356.26 314.055 356.52C312.951 356.781 312.411 357.62 312.532 357.679Z" fill="white"/>
<path d="M310.944 361.189C311.017 361.332 311.702 361.03 312.556 361.122C313.41 361.214 313.975 361.626 314.087 361.508C314.2 361.391 313.684 360.669 312.637 360.559C311.589 360.45 310.871 361.08 310.944 361.189Z" fill="white"/>
<path d="M312.209 365.556C312.338 365.472 311.976 364.716 311.105 364.405C310.235 364.095 309.493 364.355 309.493 364.498C309.493 364.64 310.17 364.649 310.888 364.934C311.605 365.22 312.08 365.656 312.209 365.556Z" fill="white"/>
<path d="M310.211 354.715C310.356 354.774 310.75 354.085 311.452 353.481C312.153 352.876 312.862 352.582 312.83 352.423C312.798 352.263 311.927 352.339 311.113 353.061C310.299 353.783 310.065 354.681 310.211 354.715Z" fill="white"/>
<path d="M302.884 262.289C300.788 262.289 249.598 277.824 244.045 283.072C238.492 288.32 234.373 353.304 234.373 353.304L255.837 360.971C255.837 360.971 260.359 329.239 263.091 318.986C264.412 313.854 264.978 308.542 264.768 303.233L307.261 283.92L302.884 262.289Z" fill="#263238"/>
<path d="M304.182 265.723C303.222 266.16 266.033 282.702 262.535 293.786C259.69 302.822 263.002 310.773 266.976 316.987C271.474 324.007 304.415 355.32 304.415 355.32L323.002 341.473L291.132 307.18C291.132 307.18 307.857 296.423 308.429 296.423C309.002 296.423 326.387 295.222 331.892 294.576C337.043 293.963 339.856 286.279 339.856 286.279L344.45 264.237L309.953 255.941L304.182 265.723Z" fill="#263238"/>
<path d="M304.181 265.724C304.181 265.724 304.294 265.505 304.544 265.077L305.632 263.204L309.904 255.916V255.874H309.944L344.45 264.12H344.555V264.229C343.185 270.854 341.637 278.294 339.985 286.271C339.2 288.291 338.094 290.159 336.712 291.796C335.991 292.637 335.138 293.344 334.189 293.887C333.951 294.03 333.7 294.148 333.44 294.24C333.181 294.357 332.911 294.444 332.634 294.5C332.36 294.559 332.086 294.626 331.828 294.668L331.022 294.752C326.669 295.205 322.156 295.541 317.529 295.894L310.485 296.389L308.695 296.507H308.453C308.405 296.507 308.453 296.507 308.389 296.507L308.3 296.549L307.913 296.75L307.107 297.204C306.059 297.825 305.02 298.472 303.972 299.118C299.781 301.73 295.525 304.451 291.197 307.23V306.978L316.094 333.756L323.074 341.271L323.203 341.406L323.058 341.515L304.464 355.362L304.359 355.446L304.27 355.353C297.613 349 291.24 342.791 285.151 336.729C282.11 333.717 279.155 330.73 276.285 327.769C273.448 324.813 270.692 321.891 268.225 318.885C267.903 318.524 267.637 318.104 267.339 317.718C267.049 317.334 266.779 316.933 266.533 316.517C266.017 315.677 265.525 314.838 265.074 313.998C264.164 312.342 263.391 310.609 262.76 308.817C262.152 307.081 261.722 305.282 261.479 303.451C261.278 301.675 261.278 299.879 261.479 298.102C261.649 296.377 262.04 294.682 262.64 293.064C263.324 291.562 264.251 290.193 265.38 289.017C267.48 286.832 269.777 284.864 272.239 283.139C276.427 280.177 280.773 277.466 285.256 275.019C289.182 272.836 292.599 271.089 295.412 269.704C298.225 268.318 300.401 267.294 301.86 266.614L303.553 265.849C303.932 265.682 304.133 265.606 304.133 265.606L303.561 265.883L301.876 266.672C300.401 267.369 298.217 268.402 295.428 269.804C292.639 271.207 289.214 272.97 285.305 275.162C280.836 277.622 276.504 280.341 272.328 283.307C269.881 285.033 267.601 287.002 265.517 289.185C264.405 290.339 263.494 291.686 262.825 293.165C262.241 294.755 261.859 296.418 261.688 298.111C261.499 299.87 261.516 301.646 261.737 303.401C261.979 305.215 262.406 306.997 263.01 308.716C263.642 310.488 264.41 312.204 265.307 313.847C265.759 314.687 266.251 315.526 266.758 316.366C267.008 316.774 267.277 317.169 267.564 317.55C267.854 317.936 268.12 318.339 268.443 318.709C270.917 321.715 273.674 324.587 276.503 327.568C279.332 330.548 282.29 333.496 285.369 336.51C291.436 342.545 297.809 348.748 304.488 355.118H304.294L322.889 341.271V341.515L315.901 334L291.019 307.297L290.882 307.154L291.052 307.045C295.38 304.274 299.636 301.554 303.835 298.942C304.883 298.296 305.923 297.649 306.978 297.028L307.784 296.574C307.921 296.499 308.05 296.423 308.203 296.356L308.316 296.305H308.47H308.687L310.476 296.196L317.521 295.701C322.148 295.357 326.653 295.021 331.006 294.576C332.074 294.536 333.12 294.249 334.069 293.736C334.978 293.205 335.796 292.518 336.487 291.704C337.849 290.096 338.939 288.259 339.711 286.271C341.371 278.302 342.935 270.863 344.313 264.237L344.402 264.372L309.92 256.025H309.977L305.648 263.297C305.165 264.136 304.794 264.733 304.536 265.153C304.278 265.572 304.181 265.724 304.181 265.724Z" fill="#455A64"/>
<path d="M307.559 159.736C306.708 159.928 305.819 159.78 305.068 159.323C304.316 158.866 303.756 158.131 303.498 157.265C303.241 156.399 303.303 155.464 303.674 154.644C304.046 153.824 304.698 153.178 305.504 152.834C304.926 152.316 304.519 151.622 304.342 150.85C304.164 150.077 304.225 149.267 304.515 148.532C304.805 147.798 305.31 147.177 305.957 146.759C306.605 146.34 307.363 146.145 308.123 146.2C308.086 145.419 308.245 144.641 308.584 143.943C308.923 143.245 309.43 142.651 310.056 142.219C310.682 141.787 311.405 141.532 312.154 141.479C312.904 141.426 313.653 141.578 314.329 141.918C315.111 141.127 316.125 140.631 317.209 140.509C318.292 140.387 319.384 140.647 320.31 141.246C321.027 141.039 321.788 141.078 322.482 141.355C323.176 141.633 323.767 142.135 324.167 142.789C324.566 143.442 324.754 144.212 324.703 144.985C324.651 145.757 324.363 146.493 323.881 147.082" fill="#263238"/>
<path d="M321.35 144.748L320.544 144.815C316.84 145.159 313.397 146.941 310.897 149.808C308.397 152.675 307.024 156.417 307.051 160.291C307.107 167.764 307.26 176.018 307.647 179.998C308.453 188.227 316.465 188.782 316.465 188.782L316.634 198.741L335.777 196.356L334.431 160.291C334.463 151.667 329.627 144.487 321.35 144.748Z" fill="#AE7461"/>
<path d="M316.514 188.782C320.172 188.439 323.658 187.008 326.557 184.659C326.557 184.659 324.517 190.965 316.562 190.948L316.514 188.782Z" fill="#6F4439"/>
<path d="M309.953 167.907C309.975 168.215 310.113 168.502 310.336 168.706C310.559 168.909 310.849 169.015 311.146 168.998C311.29 168.996 311.432 168.964 311.565 168.904C311.697 168.844 311.816 168.757 311.916 168.649C312.016 168.54 312.094 168.412 312.146 168.271C312.197 168.131 312.222 167.981 312.218 167.831C312.193 167.525 312.056 167.241 311.835 167.038C311.615 166.834 311.327 166.728 311.033 166.74C310.888 166.741 310.744 166.772 310.611 166.831C310.478 166.891 310.358 166.978 310.257 167.086C310.156 167.195 310.078 167.324 310.025 167.465C309.973 167.605 309.948 167.756 309.953 167.907Z" fill="#263238"/>
<path d="M309.138 164.17C309.292 164.313 310.098 163.574 311.315 163.465C312.532 163.356 313.475 163.901 313.588 163.742C313.7 163.582 313.483 163.398 313.072 163.137C312.51 162.811 311.867 162.668 311.226 162.726C310.594 162.784 309.996 163.048 309.517 163.481C309.171 163.817 309.066 164.103 309.138 164.17Z" fill="#263238"/>
<path d="M320.882 167.277C320.905 167.585 321.042 167.872 321.265 168.076C321.488 168.28 321.779 168.385 322.075 168.369C322.219 168.366 322.362 168.334 322.494 168.274C322.626 168.214 322.746 168.127 322.845 168.019C322.945 167.91 323.023 167.782 323.075 167.642C323.127 167.501 323.151 167.352 323.147 167.201C323.126 166.894 322.99 166.607 322.769 166.403C322.547 166.199 322.258 166.094 321.962 166.11C321.817 166.111 321.674 166.142 321.541 166.202C321.407 166.261 321.287 166.348 321.186 166.457C321.086 166.565 321.007 166.694 320.955 166.835C320.902 166.976 320.878 167.126 320.882 167.277Z" fill="#263238"/>
<path d="M321.108 163.305C321.261 163.448 322.067 162.709 323.284 162.6C324.501 162.491 325.444 163.045 325.557 162.877C325.67 162.709 325.452 162.533 325.041 162.272C324.48 161.946 323.836 161.805 323.196 161.869C322.565 161.924 321.966 162.186 321.487 162.617C321.14 162.952 321.035 163.246 321.108 163.305Z" fill="#263238"/>
<path d="M317.497 173.104C316.839 172.95 316.164 172.885 315.49 172.911C315.176 172.911 314.877 172.869 314.805 172.659C314.752 172.326 314.797 171.983 314.934 171.677L315.643 169.158C316.618 165.53 317.255 162.566 317.158 162.524C317.062 162.482 316.111 165.388 315.135 169.015C314.902 169.905 314.676 170.762 314.466 171.576C314.301 171.981 314.281 172.434 314.41 172.853C314.466 172.961 314.543 173.056 314.638 173.13C314.733 173.204 314.842 173.256 314.958 173.281C315.137 173.309 315.319 173.309 315.498 173.281C316.169 173.306 316.84 173.247 317.497 173.104Z" fill="#263238"/>
<path d="M319.641 158.527C319.834 158.838 320.842 158.393 322.123 158.233C323.405 158.074 324.541 158.233 324.59 157.847C324.59 157.679 324.372 157.419 323.889 157.201C323.27 156.948 322.6 156.864 321.942 156.955C321.284 157.046 320.658 157.31 320.124 157.721C319.738 158.057 319.56 158.384 319.641 158.527Z" fill="#263238"/>
<path d="M308.639 158.955C308.921 159.216 309.896 158.821 311.105 158.704C312.314 158.586 313.346 158.704 313.523 158.368C313.62 158.208 313.435 157.939 312.959 157.704C312.314 157.435 311.614 157.336 310.923 157.418C310.232 157.5 309.572 157.76 309.002 158.175C308.631 158.51 308.518 158.821 308.639 158.955Z" fill="#263238"/>
<path d="M307.543 156.445C307.543 156.445 309.155 151.087 311.476 149.668C314.241 147.939 315.772 151.138 318.456 150.08C321.14 149.022 323.784 147.368 326.79 149.324C330.079 151.474 328.781 153.313 329.281 156.949C331.312 171.702 334.27 175.657 334.415 168.604C334.415 167.831 336.414 167.033 336.446 163.775C336.446 159.577 336.205 154.446 335.052 151.558C334.085 149.114 332.561 147.51 329.942 145.831C325.799 143.169 320.463 143.597 316.868 144.311C313.273 145.025 306.664 150.013 307.543 156.445Z" fill="#263238"/>
<path d="M333.891 168.427C333.876 168.124 333.92 167.821 334.02 167.536C334.12 167.251 334.275 166.99 334.474 166.769C334.674 166.547 334.914 166.37 335.181 166.249C335.448 166.127 335.736 166.062 336.027 166.059C337.51 166.059 339.251 166.79 339.404 169.972C339.703 175.624 334.198 174.784 334.182 174.616C334.165 174.448 333.996 170.795 333.891 168.427Z" fill="#AE7461"/>
<path d="M335.245 172.424C335.245 172.424 335.342 172.483 335.511 172.55C335.736 172.646 335.988 172.646 336.213 172.55C336.551 172.298 336.819 171.957 336.989 171.561C337.159 171.166 337.225 170.731 337.18 170.3C337.167 169.817 337.048 169.343 336.833 168.914C336.775 168.74 336.676 168.583 336.545 168.458C336.414 168.334 336.256 168.245 336.084 168.201C335.974 168.175 335.859 168.191 335.759 168.247C335.66 168.302 335.584 168.393 335.544 168.503C335.479 168.662 335.544 168.772 335.487 168.78C335.431 168.788 335.366 168.696 335.399 168.461C335.42 168.318 335.489 168.188 335.592 168.091C335.736 167.967 335.921 167.904 336.108 167.915C336.336 167.951 336.551 168.047 336.733 168.194C336.915 168.341 337.058 168.534 337.148 168.755C337.401 169.231 337.542 169.764 337.559 170.308C337.617 170.81 337.529 171.319 337.306 171.768C337.084 172.218 336.736 172.587 336.309 172.827C336.167 172.879 336.015 172.898 335.864 172.882C335.714 172.866 335.569 172.816 335.439 172.735C335.261 172.559 335.229 172.433 335.245 172.424Z" fill="#6F4439"/>
<path d="M332.86 157.52C332.241 158.141 331.485 158.593 330.659 158.838C330.244 158.942 329.806 158.886 329.427 158.681C329.048 158.476 328.753 158.135 328.596 157.721C328.499 157.335 328.547 156.881 328.273 156.596C327.999 156.31 327.419 156.42 326.968 156.512C325.412 156.831 323.421 155.194 322.881 153.632C322.7 153.955 322.408 154.194 322.064 154.302C321.72 154.41 321.349 154.377 321.027 154.211C320.503 153.938 320.028 153.571 319.625 153.128C319.391 152.834 319.092 152.604 318.753 152.458C318.415 152.312 318.047 152.253 317.682 152.288C317.314 152.462 316.927 152.589 316.53 152.666C315.82 152.666 315.393 151.826 315.224 151.113C315.055 150.399 314.902 149.534 314.265 149.19C313.626 148.994 312.941 149.038 312.33 149.316C311.686 149.475 310.823 149.391 310.597 148.745C310.556 148.567 310.549 148.383 310.577 148.203C310.605 148.023 310.666 147.85 310.759 147.695C311.142 146.971 311.748 146.403 312.479 146.083C313.211 145.763 314.024 145.71 314.789 145.932C319.211 145.504 323.544 144.371 327.637 142.573C328.406 142.69 329.138 142.995 329.773 143.464C330.408 143.932 330.927 144.551 331.288 145.268C331.935 145.027 332.636 144.988 333.303 145.158C333.971 145.328 334.576 145.698 335.043 146.224C335.511 146.749 335.819 147.406 335.931 148.112C336.043 148.819 335.953 149.544 335.673 150.197C336.199 150.411 336.664 150.76 337.025 151.213C337.386 151.665 337.631 152.206 337.736 152.784C337.849 153.942 336.857 155.21 335.753 155C336.011 155.44 336.098 155.965 335.997 156.469C335.896 156.973 335.615 157.418 335.21 157.713C334.805 158.008 334.308 158.132 333.819 158.058C333.33 157.985 332.886 157.72 332.577 157.318" fill="#263238"/>
<path d="M314.515 147.67C314.515 147.67 314.515 147.67 314.515 147.779C314.527 147.878 314.546 147.976 314.571 148.073C314.68 148.447 314.843 148.801 315.055 149.123C315.399 149.626 315.848 150.042 316.368 150.34C317.058 150.748 317.856 150.91 318.641 150.802L318.537 150.684C318.42 151.213 318.507 151.767 318.778 152.229C319.068 152.712 319.421 153.15 319.826 153.531C320.027 153.75 320.248 153.947 320.487 154.119C320.756 154.277 321.057 154.364 321.366 154.371C321.691 154.386 322.015 154.317 322.309 154.17C322.603 154.024 322.857 153.804 323.05 153.531H322.849C322.974 154.109 323.214 154.653 323.552 155.128C323.891 155.604 324.321 156.001 324.816 156.294C325.364 156.642 326.005 156.798 326.645 156.739C327.243 156.651 327.823 156.461 328.362 156.176L328.209 156.126C328.547 156.782 329.038 157.339 329.635 157.746C329.913 157.95 330.23 158.088 330.564 158.151C330.898 158.213 331.242 158.198 331.57 158.107C332.126 157.924 332.62 157.577 332.99 157.107C333.361 156.638 333.593 156.066 333.657 155.462L333.537 155.538C334.135 155.796 334.8 155.835 335.423 155.647C335.885 155.511 336.31 155.263 336.664 154.925C336.98 154.651 337.21 154.286 337.325 153.875C337.141 154.245 336.896 154.578 336.599 154.858C336.248 155.172 335.831 155.396 335.382 155.513C334.794 155.679 334.168 155.632 333.609 155.378L333.496 155.328V155.446C333.431 156.011 333.209 156.544 332.856 156.98C332.504 157.416 332.037 157.735 331.513 157.897C331.216 157.979 330.904 157.991 330.602 157.931C330.299 157.871 330.013 157.742 329.764 157.553C329.201 157.161 328.738 156.63 328.418 156.008L328.37 155.907L328.273 155.958C327.767 156.225 327.223 156.406 326.661 156.495C326.071 156.554 325.478 156.406 324.977 156.075C324.508 155.802 324.1 155.429 323.779 154.981C323.459 154.532 323.232 154.018 323.115 153.472L323.058 153.212L322.905 153.43C322.64 153.774 322.269 154.012 321.855 154.104C321.441 154.196 321.009 154.136 320.632 153.934C320.407 153.773 320.199 153.587 320.012 153.38C319.616 153.02 319.274 152.601 318.996 152.137C318.868 151.932 318.781 151.702 318.74 151.461C318.698 151.221 318.703 150.974 318.754 150.735V150.6H318.617C317.873 150.718 317.111 150.579 316.449 150.206C315.939 149.928 315.496 149.535 315.151 149.055C314.859 148.638 314.643 148.169 314.515 147.67Z" fill="#455A64"/>
<path d="M317.602 177.143C317.602 176.933 318.972 177.093 320.068 176.01C321.164 174.927 321.197 173.398 321.39 173.415C321.583 173.432 321.608 173.785 321.551 174.414C321.469 175.244 321.11 176.017 320.536 176.598C319.979 177.147 319.239 177.448 318.472 177.437C317.9 177.454 317.586 177.253 317.602 177.143Z" fill="#263238"/>
<path d="M239.257 344.941L236.759 363.02C236.759 363.02 217.309 366.152 216.52 369.435L251.839 376.312L256.869 348.325L239.257 344.941Z" fill="#263238"/>
<path d="M247.946 363.633C248.261 363.79 248.508 364.064 248.639 364.401C248.77 364.738 248.776 365.114 248.655 365.455C248.49 365.78 248.214 366.029 247.881 366.153C247.549 366.277 247.184 366.268 246.858 366.127C246.679 366.061 246.516 365.956 246.38 365.819C246.244 365.683 246.137 365.517 246.067 365.333C245.998 365.15 245.967 364.953 245.977 364.756C245.987 364.559 246.037 364.367 246.125 364.192C246.212 364.017 246.335 363.863 246.484 363.742C246.633 363.621 246.806 363.534 246.99 363.488C247.174 363.442 247.365 363.438 247.551 363.476C247.737 363.514 247.913 363.593 248.067 363.708" fill="#E0E0E0"/>
<path d="M251.839 376.312L252.234 373.466L218.228 367.94C218.228 367.94 216.536 368.31 216.52 369.435L251.839 376.312Z" fill="#455A64"/>
<path d="M236.218 362.717C236.218 362.885 237.024 363.129 237.83 363.843C238.636 364.556 238.911 365.363 239.08 365.321C239.249 365.279 239.168 364.254 238.274 363.406C237.379 362.558 236.202 362.566 236.218 362.717Z" fill="white"/>
<path d="M232.245 363.557C232.18 363.717 232.874 364.145 233.333 364.985C233.792 365.824 233.825 366.614 234.002 366.664C234.179 366.714 234.453 365.749 233.865 364.716C233.277 363.683 232.277 363.364 232.245 363.557Z" fill="white"/>
<path d="M229.376 367.487C229.521 367.554 229.916 366.748 229.633 365.732C229.351 364.716 228.618 364.187 228.513 364.313C228.408 364.439 228.827 365.035 229.045 365.875C229.263 366.714 229.206 367.437 229.376 367.487Z" fill="white"/>
<path d="M237.25 358.687C237.29 358.855 238.129 358.771 239.088 359.031C240.047 359.291 240.756 359.736 240.877 359.602C240.998 359.468 240.361 358.762 239.265 358.443C238.169 358.124 237.186 358.519 237.25 358.687Z" fill="white"/>
<path d="M315.812 200.025L316.538 196.608L335.858 186.632L337.543 189.361C337.543 189.361 344.797 195.483 347.529 200.798C350.261 206.113 347.013 249.593 346.554 255.941C345.619 268.738 341.033 285.473 341.033 285.473C341.033 285.473 334.842 280.989 316.635 273.197C298.427 265.404 297.451 261.878 297.451 261.878L308.147 247.678L315.812 200.025Z" fill="#038BFE"/>
<path d="M316.102 201.226C315.998 201.856 307.236 223.663 307.236 223.663C307.236 223.663 311.766 226.3 312.403 226.434C313.04 226.568 316.102 201.226 316.102 201.226Z" fill="#038BFE"/>
<path d="M315.224 204.803C315.313 204.803 314.539 210.354 313.499 217.18C312.459 224.007 311.548 229.516 311.46 229.507C311.371 229.499 312.145 223.948 313.185 217.13C314.224 210.312 315.143 204.786 315.224 204.803Z" fill="#263238"/>
<path d="M254.04 248.434C254.04 248.434 259.23 240.449 262.325 239.046C264.578 238.096 266.913 237.371 269.297 236.88L282.363 238.702L282.129 246.83C281.485 247.377 280.736 247.775 279.933 247.998C279.13 248.221 278.291 248.264 277.47 248.123C274.859 247.552 268.403 245.386 268.403 245.386L265.179 245.336L261.955 249.114C261.955 249.114 259.48 249.702 260.496 247.376C261.511 245.05 261.963 244.017 261.963 244.017C261.963 244.017 258.739 248.459 257.659 248.594C256.45 248.642 255.24 248.589 254.04 248.434Z" fill="#AE7461"/>
<path d="M322.309 216.45L313.289 238.374L282.282 238.694L282.048 246.813C282.048 246.813 311.951 257.805 319.931 255.672C327.911 253.539 341.048 224.167 341.048 224.167L322.309 216.45Z" fill="#AE7461"/>
<path d="M329.643 197.943C328.837 198.783 325.992 202.141 323.002 209.631C320.012 217.122 315.812 225.796 315.812 225.796L337.196 234.671C337.196 234.671 342.032 222.991 344.329 217.793C346.054 213.838 347.263 206.038 345.691 202.284C344.119 198.531 337.091 190.915 329.643 197.943Z" fill="#038BFE"/>
<path d="M329.644 197.943L329.837 197.75C329.974 197.624 330.167 197.431 330.442 197.204C331.242 196.536 332.129 195.991 333.077 195.583C334.614 194.942 336.303 194.812 337.913 195.214C340.014 195.786 341.914 196.968 343.394 198.623C344.276 199.555 345.028 200.613 345.627 201.763C346.213 203.054 346.529 204.459 346.554 205.886C346.656 209.007 346.281 212.125 345.441 215.123C344.964 216.733 344.374 218.305 343.676 219.825C343.015 221.398 342.338 223 341.645 224.629L337.381 234.705L337.317 234.848L337.18 234.789L336.865 234.663L315.804 225.896L315.659 225.838L315.732 225.695C317.723 221.496 319.496 217.642 321.011 214.157C322.526 210.673 323.687 207.549 324.953 205.097C325.874 203.176 326.952 201.341 328.177 199.614C328.508 199.16 328.863 198.726 329.241 198.312C329.37 198.17 329.507 198.035 329.652 197.909L329.555 198.018L329.273 198.346C329.023 198.631 328.676 199.076 328.249 199.673C327.034 201.415 325.956 203.257 325.025 205.181C323.792 207.625 322.663 210.773 321.148 214.258C319.633 217.743 317.924 221.648 315.909 225.829L315.837 225.619L336.914 234.361L337.22 234.487L337.019 234.571C338.485 231.111 339.912 227.727 341.29 224.494L343.33 219.691C344.025 218.184 344.615 216.627 345.095 215.031C345.93 212.066 346.31 208.983 346.223 205.895C346.197 204.505 345.895 203.135 345.337 201.873C344.758 200.739 344.025 199.698 343.16 198.783C341.713 197.159 339.855 195.995 337.8 195.424C336.237 195.036 334.597 195.144 333.093 195.734C332.146 196.124 331.256 196.649 330.45 197.296C330.168 197.506 329.974 197.691 329.829 197.808L329.644 197.943Z" fill="#263238"/>
<path d="M267.742 240.961C266.602 241.04 265.484 241.324 264.437 241.8C263.438 242.386 262.545 243.151 261.801 244.059C261.909 243.713 262.091 243.397 262.333 243.136C262.872 242.458 263.538 241.904 264.291 241.507C265.044 241.109 265.867 240.878 266.71 240.826C267.059 240.793 267.411 240.839 267.742 240.961Z" fill="#6F4439"/>
<path d="M318.061 226.728C318.049 226.806 318.028 226.882 317.997 226.955L317.755 227.593C317.521 228.18 317.199 228.987 316.804 229.994C315.998 232.077 314.781 234.99 313.378 238.433V238.526H313.29L303.875 238.635L288.561 238.744H283.935H282.677H282.242C282.385 238.712 282.531 238.697 282.677 238.702L283.935 238.66L288.561 238.559L303.827 238.358L313.249 238.274L313.12 238.366L316.651 229.969L317.674 227.601L317.948 226.98C317.977 226.892 318.015 226.807 318.061 226.728Z" fill="#6F4439"/>
<path d="M43.6696 255.941H37.697V377.622H43.6696V255.941Z" fill="#455A64"/>
<path d="M288.698 256.798H282.725V377.639H288.698V256.798Z" fill="#455A64"/>
<path d="M294.606 254.74H22.7859V262.079H294.606V254.74Z" fill="#455A64"/>
<path d="M291.986 262.088C291.986 262.18 260.27 262.256 221.154 262.256C182.038 262.256 150.305 262.18 150.305 262.088C150.305 261.995 182.014 261.92 221.154 261.92C260.294 261.92 291.986 261.995 291.986 262.088Z" fill="#263238"/>
<path d="M213.747 211.79C214.091 211.723 214.446 211.802 214.735 212.008C215.023 212.214 215.222 212.531 215.286 212.89L222.645 253.497H258.416C258.672 253.497 258.918 253.604 259.1 253.793C259.281 253.982 259.383 254.238 259.383 254.505C259.383 254.772 259.281 255.029 259.1 255.218C258.918 255.407 258.672 255.513 258.416 255.513H220.477V255.353H220.308L212.699 213.368C212.64 213.014 212.717 212.651 212.913 212.355C213.109 212.06 213.408 211.857 213.747 211.79Z" fill="#263238"/>
<path d="M34.4893 117.038C36.0637 114.491 38.1677 112.345 40.6455 110.759C43.1233 109.173 45.9115 108.188 48.8041 107.876C52.2055 107.499 53.6402 108.112 56.1791 108.565C58.6723 108.96 60.9539 110.252 62.6272 112.218C64.6876 114.547 66.1513 117.38 66.883 120.455C67.4561 123.41 67.5514 126.444 67.1651 129.432C66.5176 133.279 65.2677 136.99 63.4655 140.415L58.2989 141.557C53.9787 142.119 49.5859 142.674 45.2737 142.036C40.9616 141.397 36.6494 139.407 34.054 135.763C30.4834 130.691 31.0798 122.252 34.4893 117.038Z" fill="#263238"/>
<path d="M41.4775 116.332L51.5768 111.025L54.3415 111.101C60.4994 110.547 65.3516 117.231 65.8433 122.42C66.3752 128.189 66.8186 135.259 66.3027 139.592C65.263 148.308 58.3151 149.668 58.3151 149.668C58.3151 149.668 59.4838 159.837 59.782 162.701L43.0089 157.36L38.9788 119.515C38.9408 118.756 39.1758 118.009 39.6378 117.42C40.0998 116.832 40.7557 116.444 41.4775 116.332Z" fill="#FFBF9D"/>
<path d="M53.8096 138.735C53.8297 138.42 53.926 138.116 54.0894 137.85C54.2528 137.584 54.4781 137.366 54.7443 137.215C55.0105 137.064 55.309 136.986 55.612 136.987C55.915 136.989 56.2127 137.07 56.4775 137.224C56.8382 137.464 57.1313 137.8 57.3267 138.197C57.5222 138.594 57.6129 139.037 57.5898 139.483C57.4297 139.762 57.2149 140.003 56.9593 140.189C56.7037 140.376 56.4132 140.504 56.1067 140.566C56.0101 140.574 55.9131 140.574 55.8165 140.566C55.328 140.609 54.842 140.459 54.4544 140.146C54.2532 139.976 54.091 139.76 53.9794 139.516C53.8679 139.272 53.8099 139.006 53.8096 138.735Z" fill="#FF9A6C"/>
<path d="M64.2313 130.213C64.2446 130.502 64.1482 130.786 63.9628 131.003C63.7774 131.22 63.5179 131.352 63.2399 131.371C63.1048 131.386 62.968 131.373 62.8378 131.333C62.7076 131.292 62.5864 131.225 62.4813 131.135C62.3763 131.045 62.2895 130.934 62.226 130.809C62.1625 130.684 62.1236 130.547 62.1115 130.406C62.1067 130.121 62.2069 129.846 62.3915 129.637C62.576 129.427 62.8306 129.3 63.1029 129.28C63.2358 129.264 63.3705 129.275 63.4992 129.313C63.628 129.351 63.7482 129.415 63.8531 129.502C63.958 129.589 64.0453 129.696 64.1102 129.818C64.1751 129.94 64.2163 130.074 64.2313 130.213Z" fill="#263238"/>
<path d="M64.2313 125.485C64.1104 125.636 63.2802 125.04 62.1276 125.082C60.975 125.124 60.1609 125.754 60.0239 125.611C59.8869 125.468 60.0884 125.283 60.4511 124.99C60.9376 124.615 61.5226 124.404 62.1276 124.385C62.7234 124.365 63.3099 124.542 63.8041 124.889C64.1426 125.158 64.2716 125.418 64.2313 125.485Z" fill="#263238"/>
<path d="M57.6622 135.503C58.2615 135.286 58.8842 135.148 59.5161 135.091C59.8063 135.091 60.0883 134.974 60.1286 134.764C60.1392 134.448 60.0607 134.135 59.903 133.865L58.96 131.573C58.0928 129.628 57.3732 127.614 56.8079 125.552C56.9368 125.502 58.1056 128.071 59.4194 131.38C59.7337 132.219 60.04 132.95 60.3221 133.689C60.5265 134.048 60.5954 134.473 60.5156 134.881C60.477 134.991 60.4148 135.089 60.3337 135.169C60.2526 135.249 60.1549 135.309 60.0481 135.343C59.8884 135.395 59.7233 135.426 59.5564 135.435C58.931 135.549 58.2936 135.571 57.6622 135.503Z" fill="#263238"/>
<path d="M58.3313 149.66C54.4026 149.871 50.4951 148.938 47.0471 146.965C47.0471 146.965 50.2147 152.842 58.5167 151.759L58.3313 149.66Z" fill="#FF9A6C"/>
<path d="M64.2313 121.815C64.0459 122.118 63.1593 121.95 62.1357 122.076C61.1121 122.202 60.2657 122.512 60.032 122.261C59.9272 122.135 60.032 121.849 60.3785 121.538C60.8443 121.16 61.4031 120.928 61.9906 120.867C62.5884 120.794 63.1935 120.905 63.7316 121.186C64.1427 121.412 64.2958 121.673 64.2313 121.815Z" fill="#263238"/>
<path d="M52.4393 131.111C52.458 131.4 52.5836 131.67 52.7896 131.864C52.9956 132.058 53.2659 132.162 53.5436 132.152C53.68 132.153 53.8154 132.126 53.9416 132.072C54.0678 132.018 54.1823 131.938 54.2784 131.837C54.3745 131.736 54.4503 131.616 54.5013 131.484C54.5523 131.352 54.5774 131.211 54.5753 131.069C54.5586 130.779 54.4336 130.508 54.2272 130.314C54.0207 130.119 53.7493 130.016 53.4711 130.028C53.3346 130.027 53.1993 130.054 53.0731 130.108C52.9469 130.162 52.8324 130.242 52.7362 130.343C52.6401 130.444 52.5643 130.564 52.5133 130.696C52.4623 130.828 52.4372 130.969 52.4393 131.111Z" fill="#263238"/>
<path d="M48.6995 126.459C48.8366 126.593 49.6023 125.913 50.7549 125.829C51.9075 125.745 52.778 126.283 52.8908 126.123C53.0037 125.964 52.7941 125.804 52.4153 125.552C51.8914 125.234 51.2867 125.091 50.6823 125.141C50.0895 125.184 49.5252 125.422 49.0703 125.821C48.7318 126.132 48.627 126.4 48.6995 126.459Z" fill="#263238"/>
<path d="M50.2148 122.235C50.4485 122.496 51.319 122.168 52.383 122.093C53.4469 122.017 54.3658 122.16 54.5512 121.866C54.6398 121.723 54.4786 121.454 54.0756 121.228C53.5198 120.95 52.903 120.83 52.2884 120.882C51.6738 120.934 51.0834 121.154 50.5775 121.522C50.2148 121.824 50.102 122.109 50.2148 122.235Z" fill="#263238"/>
<path d="M41.6629 133.89C41.6629 133.244 40.8569 131.749 40.2524 131.674C38.6403 131.464 35.6662 131.674 35.779 136.032C35.9402 141.91 41.6065 140.566 41.6145 140.39C41.6226 140.213 41.6629 136.124 41.6629 133.89Z" fill="#FFBF9D"/>
<path d="M39.946 138.274C39.946 138.274 39.8493 138.349 39.6881 138.433C39.4505 138.535 39.1841 138.535 38.9466 138.433C38.5709 138.204 38.2617 137.872 38.0517 137.475C37.8417 137.077 37.7388 136.628 37.7537 136.174C37.7264 135.669 37.809 135.164 37.9955 134.697C38.0402 134.506 38.1289 134.33 38.254 134.184C38.379 134.037 38.5366 133.925 38.7128 133.857C38.8267 133.822 38.9487 133.83 39.0577 133.879C39.1667 133.928 39.2557 134.015 39.3093 134.126C39.3899 134.285 39.3576 134.403 39.3818 134.411C39.406 134.419 39.5027 134.31 39.4543 134.067C39.4165 133.923 39.3344 133.796 39.2206 133.706C39.1414 133.645 39.0513 133.602 38.9558 133.579C38.8602 133.556 38.7611 133.553 38.6645 133.571C38.4334 133.625 38.2195 133.74 38.0431 133.905C37.8667 134.069 37.7338 134.278 37.657 134.512C37.4285 135.038 37.3262 135.614 37.3587 136.191C37.4312 137.384 38.0438 138.484 38.866 138.71C39.0199 138.754 39.1816 138.761 39.3382 138.729C39.4948 138.696 39.6422 138.627 39.7687 138.526C39.946 138.416 39.9702 138.29 39.946 138.274Z" fill="#FF9A6C"/>
<path d="M39.9864 131.707L41.5501 133.126C50.5936 126.929 59.7822 110.076 57.4044 110.765C54.4889 109.927 51.4177 109.866 48.4738 110.589C43.9359 111.831 35.4002 115.047 36.0209 120.665C36.6415 126.283 39.9864 131.707 39.9864 131.707Z" fill="#263238"/>
<path d="M37.3346 108.061C39.5269 109.405 41.4936 113.309 40.5586 115.795C40.763 117.1 40.6447 118.438 40.2149 119.683C39.7851 120.928 39.0579 122.037 38.1021 122.908C37.1463 123.779 35.9933 124.381 34.752 124.659C33.5106 124.936 32.2219 124.88 31.0074 124.494C29.331 123.954 27.8992 122.8 26.9773 121.244C25.9661 119.336 25.6512 117.111 26.0907 114.98C26.3018 113.668 26.7628 112.414 27.4467 111.29C28.1305 110.167 29.0233 109.197 30.0724 108.439C31.1368 107.697 32.3744 107.271 33.6533 107.204C34.9323 107.138 36.2045 107.434 37.3346 108.061Z" fill="#263238"/>
<path d="M36.8269 131.724C37.1854 131.605 37.5311 131.447 37.8586 131.254C38.5115 130.926 39.4706 130.414 40.5668 129.751C43.5188 128.022 46.2533 125.918 48.7075 123.486C51.1683 121.037 53.1668 118.129 54.5995 114.913C55.0262 113.938 55.3792 112.931 55.6554 111.899C55.7727 111.525 55.8484 111.139 55.8811 110.748C55.8005 110.748 55.4458 112.36 54.3255 114.779C52.8334 117.913 50.8318 120.753 48.4093 123.176C45.9732 125.581 43.2921 127.701 40.4137 129.499C39.3094 130.204 38.4067 130.742 37.778 131.119C37.4444 131.291 37.1261 131.494 36.8269 131.724Z" fill="#455A64"/>
<path d="M31.8779 127.282C31.9585 127.282 31.9908 126.182 32.3051 124.444C32.7311 122.186 33.4782 120.006 34.5216 117.978C35.5921 115.954 36.9509 114.111 38.5517 112.512C39.7768 111.286 40.6473 110.656 40.599 110.589C40.3673 110.684 40.1501 110.815 39.9542 110.975C39.385 111.367 38.846 111.805 38.3421 112.285C34.9374 115.428 32.6913 119.71 31.9907 124.393C31.8844 125.093 31.8278 125.801 31.8215 126.509C31.8027 126.768 31.8217 127.029 31.8779 127.282Z" fill="#455A64"/>
<path d="M37.907 141.036C37.907 141.475 38.0318 141.903 38.2656 142.268C38.4994 142.632 38.8317 142.917 39.2205 143.084C39.6094 143.252 40.0372 143.296 40.45 143.21C40.8627 143.125 41.2419 142.914 41.5395 142.604C41.837 142.294 42.0397 141.899 42.1218 141.469C42.2039 141.039 42.1618 140.593 42.0008 140.188C41.8397 139.783 41.567 139.437 41.217 139.193C40.8671 138.949 40.4557 138.819 40.0348 138.819C39.4705 138.819 38.9292 139.053 38.5302 139.469C38.1311 139.884 37.907 140.448 37.907 141.036Z" fill="#263238"/>
<path d="M57.9282 139.676C57.9282 139.466 56.5822 139.676 55.4376 138.693C54.2931 137.711 54.1883 136.174 54.0029 136.174C53.8175 136.174 53.8014 136.552 53.89 137.174C54.0147 137.987 54.4116 138.727 55.0104 139.264C55.5876 139.778 56.3324 140.039 57.0899 139.995C57.6541 139.978 57.9523 139.768 57.9282 139.676Z" fill="#263238"/>
<path d="M27.6383 214.98C27.6383 214.98 21.295 238.282 25.0671 250.936C27.3239 258.494 59.0325 300.336 60.5317 302.158C61.5956 303.409 46.9665 342.909 44.2986 351.138L61.104 359.627C61.104 359.627 82.149 313.024 83.4306 304.854C85.0426 294.366 61.4184 249.501 62.2889 248.896L70.7923 230.422L63.7316 211.386C63.7316 211.386 33.9816 211.722 27.9043 212.226L27.6383 214.98Z" fill="#263238"/>
<path d="M64.4166 228.718C64.4166 228.718 105.427 243.883 110.053 246.444C115.099 249.24 118.919 259.039 114.704 267.436C110.488 275.833 73.5971 299.664 73.5971 299.664L64.3925 285.07L91.0796 263.171L62.2162 256.075L52.802 244.454L64.4166 228.718Z" fill="#263238"/>
<path d="M83.4628 304.568C83.5555 303.58 83.5555 302.584 83.4628 301.596C83.0738 298.915 82.3756 296.293 81.3833 293.786C80.803 292.182 80.1018 290.428 79.3602 288.572C78.9895 287.64 78.6348 286.649 78.264 285.65C77.8932 284.65 77.458 283.634 77.0308 282.593C75.2818 278.395 73.291 273.869 71.2034 269.099C67.8181 261.433 64.6908 254.362 62.1841 248.678V248.627V248.568C63.2561 243.958 64.1911 240.171 64.9084 237.593C65.2631 236.284 65.5693 235.276 65.8031 234.596C65.932 234.26 66.0207 234.008 66.1094 233.84C66.198 233.672 66.2544 233.597 66.2625 233.605C66.2367 233.695 66.2015 233.783 66.1577 233.865C66.0852 234.025 66.0126 234.293 65.8998 234.629C65.6983 235.318 65.4242 236.309 65.0938 237.644C64.4328 240.255 63.5462 244.034 62.5145 248.644V248.518C65.0615 254.152 68.2292 261.223 71.6064 268.898C73.702 273.675 75.6848 278.235 77.4096 282.417C77.8368 283.466 78.264 284.474 78.6348 285.498C79.0056 286.523 79.336 287.48 79.7068 288.421C80.4322 290.293 81.1173 292.04 81.6896 293.66C82.6644 296.196 83.3227 298.852 83.6482 301.562C83.754 302.568 83.6913 303.585 83.4628 304.568Z" fill="#455A64"/>
<path opacity="0.3" d="M65.0373 237.493C64.9567 237.803 65.0373 248.72 65.0373 248.72L70.3006 258.015L66.1012 256.982L62.3613 248.871L65.0373 237.493Z" fill="black"/>
<path d="M88.2666 235.83C87.0898 234.621 83.6159 231.22 81.1737 228.844C80.9668 228.641 80.8225 228.379 80.7594 228.091C80.6962 227.803 80.7171 227.501 80.8192 227.226C80.9213 226.95 81.1001 226.712 81.3327 226.542C81.5652 226.373 81.841 226.28 82.1248 226.274L110.174 225.678C110.38 225.672 110.586 225.713 110.775 225.799C110.964 225.885 111.133 226.012 111.27 226.174L117.146 233.042C117.325 233.255 117.442 233.517 117.483 233.796C117.525 234.075 117.49 234.361 117.382 234.621C117.274 234.88 117.097 235.102 116.873 235.261C116.649 235.42 116.386 235.51 116.114 235.519L89.2741 236.25C88.8991 236.249 88.5386 236.099 88.2666 235.83Z" fill="#455A64"/>
<path d="M80.3517 230.565C82.4371 229.643 84.6336 229.021 86.8804 228.718C90.1447 228.382 91.7729 229.809 93.522 229.642C95.271 229.474 100.051 229.961 100.051 231.321C100.051 232.681 93.4091 233.143 93.4091 233.143L99.2366 235.083C99.2366 235.083 105.878 234.243 105.999 235.083C106.12 235.922 100.051 236.762 97.2538 237.148C94.4569 237.535 78.2561 237.761 75.9186 237.148C73.5812 236.535 56.9773 226.073 56.9773 226.073L64.9085 217.575L80.3517 230.565Z" fill="#FFBF9D"/>
<path d="M39.4947 154.555C37.0947 155.085 34.877 156.28 33.0763 158.016C31.2756 159.751 29.9591 161.962 29.2663 164.414C27.0982 171.601 31.233 201.15 32.9901 206.491C34.7472 211.831 53.6805 228.995 55.3651 227.526C57.0496 226.056 66.2543 217.567 66.2543 217.567L51.4478 199.328C51.4478 199.328 52.2539 177.681 51.2463 173.6C50.2388 169.519 43.6134 154.144 39.4947 154.555Z" fill="#038BFE"/>
<path d="M30.2418 190.579C31.3219 200.84 29.2101 205.248 29.2101 205.248C27.67 206.56 26.6813 208.446 26.4535 210.505C26.4276 210.72 26.447 210.939 26.5106 211.146C26.5741 211.353 26.6801 211.543 26.8212 211.703C26.9624 211.863 27.1353 211.988 27.3279 212.072C27.5206 212.155 27.7283 212.193 27.9366 212.184L63.7639 211.344C63.7639 211.344 68.7773 211.84 68.6725 206.886C68.5516 201.36 70.0185 181.938 68.0922 174.297C67.4232 171.66 59.226 158.813 59.226 158.813L42.1466 148.736L40.3411 153.581C40.3411 153.581 34.9167 155.647 32.4422 158.964C30.8046 161.092 29.6353 163.569 29.0167 166.219C27.5497 171.543 29.6615 185.087 30.2418 190.579Z" fill="#038BFE"/>
<path d="M120.33 173.466C120.33 173.466 120.015 173.172 118.927 173.533C117.839 173.894 114.752 175.481 113.35 175.859C111.947 176.237 108.917 177.454 108.917 177.454C107.526 177.438 106.171 177.911 105.072 178.798C102.928 180.343 96.8667 184.516 96.8667 184.516L98.9462 190.654C99.9365 190.457 100.946 190.39 101.953 190.453C103.379 190.738 104.85 190.675 106.249 190.268C107.861 189.756 110.126 188.824 110.126 188.824C110.126 188.824 112.302 189.008 112.866 188.185C113.43 187.363 112.826 185.885 112.826 185.885C112.826 185.885 114.962 183.844 114.043 182.702C113.124 181.56 111.988 180.284 111.988 180.284C111.988 180.284 118.307 176.799 119.508 175.867C120.709 174.935 120.934 174.204 120.33 173.466Z" fill="#FFBF9D"/>
<path d="M96.8667 184.516L77.2 191.41L69.2527 195.592L80.4079 201.856L98.9462 190.654L96.8667 184.516Z" fill="#FFBF9D"/>
<path d="M108.78 179.453C109.149 181.192 109.074 183.001 108.562 184.701C108.562 184.818 108.498 184.927 108.473 185.028L108.304 184.751C109.61 184.995 110.771 185.238 111.609 185.431C112.447 185.624 112.923 185.985 112.882 186.036C112.445 185.904 112.001 185.8 111.552 185.725C110.746 185.608 109.537 185.414 108.232 185.179L108.006 185.137L108.07 184.902C108.07 184.801 108.127 184.692 108.159 184.592C108.525 182.904 108.733 181.182 108.78 179.453Z" fill="#FF9A6C"/>
<path d="M108.683 182.366C108.683 182.324 108.86 182.366 109.086 182.501C109.404 182.729 109.633 183.069 109.731 183.458L109.521 183.307C109.888 183.235 110.26 183.195 110.634 183.189C111.502 183.098 112.377 183.285 113.14 183.727C113.14 183.844 112.004 183.592 110.642 183.626C110.255 183.626 109.892 183.626 109.57 183.693H109.392V183.525C109.207 182.744 108.627 182.442 108.683 182.366Z" fill="#FF9A6C"/>
<path d="M111.649 180.796C111.714 180.897 111.182 181.367 110.706 182.072C110.231 182.778 109.973 183.45 109.9 183.424C109.828 183.399 109.9 182.585 110.408 181.821C110.916 181.056 111.593 180.695 111.649 180.796Z" fill="#FF9A6C"/>
<path d="M58.8713 154.32L60.8461 159.846C62.9901 161.97 68.3501 167.932 69.3657 172.038C70.6956 177.412 76.6843 190.915 76.6843 190.915C76.6843 190.915 90.2737 184.877 91.1925 185.876C92.1114 186.876 96.891 198.472 95.3274 200.941C93.7637 203.409 79.8841 209.783 74.2662 208.347C68.6483 206.911 63.3367 198.438 63.3367 198.438L58.8713 154.32Z" fill="#038BFE"/>
<path d="M67.7938 172.105C67.9751 172.511 68.1234 172.933 68.2371 173.365C68.4059 173.861 68.5432 174.369 68.6482 174.885C68.8148 175.557 68.9466 176.238 69.0431 176.925C69.3252 178.716 69.4815 180.526 69.5106 182.341C69.5106 184.39 69.5106 186.632 69.3333 188.983C69.027 193.686 68.7046 197.926 68.7449 200.999C68.7449 201.772 68.7449 202.469 68.7449 203.073C68.7449 203.678 68.7933 204.215 68.8336 204.644C68.8872 205.086 68.9034 205.533 68.882 205.979C68.776 205.546 68.7058 205.105 68.6724 204.66C68.5932 204.14 68.5394 203.616 68.5112 203.09C68.5112 202.477 68.4144 201.78 68.4064 201.008C68.2935 197.918 68.5676 193.644 68.882 188.958C69.019 186.615 69.0996 184.382 69.0835 182.35C69.0743 180.552 68.9505 178.756 68.7127 176.975C68.3338 173.927 67.6971 172.105 67.7938 172.105Z" fill="#263238"/>
<path d="M76.4828 198.917C76.284 197.547 76.2299 196.159 76.3216 194.777C76.2633 193.405 76.3526 192.031 76.5876 190.679C76.7718 192.039 76.8231 193.415 76.7408 194.786C76.7932 196.168 76.7067 197.553 76.4828 198.917Z" fill="#263238"/>
<path d="M51.1254 171.131C51.144 171.296 51.144 171.462 51.1254 171.627C51.1254 172.004 51.1254 172.466 51.1254 173.054C51.1254 174.339 51.1657 176.111 51.1899 178.269C51.2463 182.677 51.464 188.782 51.2866 195.508C51.1785 197.112 51.4555 198.72 52.0927 200.185C52.8553 201.469 53.747 202.666 54.7525 203.754L59.6531 209.581L62.9255 213.536L63.804 214.628C63.9094 214.75 64.0039 214.882 64.0861 215.022C64.0861 215.022 63.9572 214.913 63.7396 214.686L62.8046 213.645C61.9985 212.688 60.8298 211.378 59.4274 209.783L54.5591 204.014C53.5232 202.913 52.6068 201.696 51.8267 200.386C51.1431 198.863 50.8383 197.186 50.9401 195.508C51.1174 188.79 50.9401 182.685 50.9401 178.277C50.9401 176.069 50.9401 174.28 51.0046 173.046C51.0046 172.433 51.0045 171.954 51.069 171.627C51.0677 171.46 51.0867 171.293 51.1254 171.131Z" fill="#263238"/>
<path d="M38.8258 154.555C38.8258 154.597 38.0198 154.841 36.6577 155.605C34.7561 156.696 33.1057 158.207 31.8216 160.03C30.9301 161.275 30.2312 162.658 29.7501 164.128C29.4763 164.947 29.2766 165.79 29.1537 166.647C29.0408 167.487 28.9683 168.453 28.9119 169.393C28.7951 171.37 28.7951 173.353 28.9119 175.33C29.0489 177.379 29.3149 179.528 29.5245 181.695C29.9678 186.053 30.3949 190.209 30.7738 193.996C30.9918 197.347 31.4661 200.674 32.1924 203.947C32.733 206.14 33.6804 208.203 34.9812 210.018C35.3415 210.503 35.7318 210.963 36.1499 211.395C36.3028 211.538 36.4482 211.689 36.5851 211.848C36.5851 211.848 36.5368 211.848 36.4562 211.764C36.3755 211.68 36.2466 211.596 36.0935 211.454C35.6449 211.045 35.2296 210.599 34.8522 210.118C33.4797 208.322 32.4782 206.249 31.9103 204.031C31.1349 200.75 30.628 197.408 30.395 194.038C30 190.251 29.5889 186.103 29.1134 181.737C28.9038 179.553 28.6298 177.429 28.5008 175.355C28.3796 173.361 28.3796 171.361 28.5008 169.368C28.5653 168.411 28.6378 167.487 28.7668 166.588C28.899 165.713 29.1095 164.853 29.3955 164.019C30.6655 160.329 33.2241 157.274 36.5609 155.462C37.0795 155.178 37.6184 154.937 38.173 154.74C38.3823 154.65 38.6017 154.588 38.8258 154.555Z" fill="#263238"/>
<path d="M59.1292 160.03C58.8418 159.89 58.5712 159.716 58.3232 159.51L56.1389 157.965L56.3726 157.847C56.3726 159.006 56.3726 160.366 56.3323 161.869V162.188L56.0583 162.037L51.5285 159.669C48.4414 158.04 45.6607 156.537 43.6537 155.471L41.2921 154.144C41.007 153.993 40.737 153.813 40.4861 153.607C40.807 153.694 41.1158 153.824 41.405 153.993L43.823 155.194C45.8622 156.226 48.6591 157.713 51.7542 159.317L56.2598 161.718L55.9858 161.894C55.9858 160.391 56.0744 159.031 56.1066 157.872V157.578L56.3323 157.755L58.4441 159.434C58.6896 159.61 58.9189 159.81 59.1292 160.03Z" fill="#263238"/>
<path d="M65.4805 346.696L58.8471 361.147C58.8471 361.147 71.5659 373.289 70.6068 376.094L41.6628 363.188L51.0529 340.213L65.4805 346.696Z" fill="#263238"/>
<path d="M50.4082 355.924C50.1047 355.874 49.7942 355.945 49.5397 356.125C49.2852 356.304 49.1058 356.578 49.038 356.89C49.004 357.211 49.0871 357.533 49.2708 357.793C49.4544 358.053 49.7253 358.231 50.0293 358.292C50.3517 358.343 50.6806 358.265 50.9497 358.073C51.2189 357.881 51.4084 357.591 51.4802 357.259C51.4775 356.92 51.3541 356.594 51.1336 356.344C50.9132 356.094 50.6116 355.939 50.2873 355.907" fill="#E0E0E0"/>
<path d="M41.6628 363.188L42.7026 360.912L70.107 374.137C70.107 374.137 71.163 375.263 70.6471 376.094L41.6628 363.188Z" fill="#455A64"/>
<path d="M59.3952 361.214C59.3307 361.349 58.5892 361.097 57.7187 361.214C56.8482 361.332 56.2275 361.777 56.1066 361.659C55.9857 361.542 56.5419 360.82 57.6139 360.694C58.6859 360.568 59.4677 361.097 59.3952 361.214Z" fill="white"/>
<path d="M61.91 363.801C61.91 363.952 61.1685 363.918 60.4511 364.288C59.7337 364.657 59.3227 365.228 59.1857 365.127C59.0486 365.027 59.2824 364.229 60.1932 363.775C61.104 363.322 61.9583 363.666 61.91 363.801Z" fill="white"/>
<path d="M62.1438 368.15C62.0067 368.15 62.0954 367.311 62.7805 366.74C63.4657 366.169 64.2475 366.127 64.2556 366.269C64.2636 366.412 63.6914 366.639 63.1433 367.109C62.5952 367.579 62.2969 368.201 62.1438 368.15Z" fill="white"/>
</g>
<defs>
<clipPath id="clip0_45_195">
<rect width="371" height="378" fill="white"/>
</clipPath>
</defs>
</svg>
