<svg width="1920" height="1080" viewBox="0 0 1920 1080" fill="none" xmlns="http://www.w3.org/2000/svg">
<g clip-path="url(#clip0_801_685)">
<rect width="1920" height="1080" fill="#D3D7F1"/>
<path d="M1535.79 -417.304C1535.75 -404.356 1525.22 -393.891 1512.27 -393.928C1499.33 -393.966 1488.86 -404.492 1488.9 -417.44L1535.79 -417.304ZM1960.9 57.3186C1947.86 57.2806 1937.39 46.7545 1937.43 33.7086C1937.47 20.6626 1947.99 10.1976 1961.04 10.2355L1960.9 57.3186Z" fill="#CCD1F3"/>
<path d="M1959.6 510.098L1959.46 557.181C1828.71 556.801 1710.57 503.488 1625.09 417.508C1539.7 331.626 1487.08 213.078 1487.46 82.3243C1487.84 -48.4294 1541.15 -166.571 1627.04 -252.053C1712.92 -337.436 1831.47 -390.158 1962.22 -389.777L1962.08 -342.694C1844.38 -343.037 1737.61 -295.676 1660.29 -218.703C1582.87 -141.731 1534.89 -35.3445 1534.54 82.3632C1534.2 200.071 1581.66 306.833 1658.54 384.156C1735.41 461.577 1841.89 509.559 1959.6 509.902L1959.6 510.098Z" fill="#CCD1F3"/>
<path d="M1959.87 410.112L1959.74 457.195C1856.65 456.895 1763.39 414.837 1696 347.057C1628.61 279.276 1587.1 185.773 1587.4 82.6808C1587.7 -20.4116 1629.75 -113.671 1697.54 -181.059C1765.32 -248.446 1858.82 -289.96 1961.91 -289.66L1961.77 -242.577C1871.63 -242.839 1789.91 -206.588 1730.69 -147.709C1671.47 -88.8312 1634.74 -7.3267 1634.48 82.8178C1634.22 172.962 1670.47 254.679 1729.35 313.901C1788.23 373.123 1869.73 409.948 1959.87 410.21L1959.87 410.112Z" fill="#CCD1F3"/>
<path d="M1960.17 310.174L1960.04 357.257C1884.51 357.037 1816.23 326.234 1766.84 276.555C1717.54 226.974 1687.04 158.516 1687.26 82.9867C1687.48 7.45756 1718.28 -60.8219 1767.96 -110.115C1817.64 -159.408 1886.1 -189.911 1961.63 -189.691L1961.49 -142.608C1898.91 -142.79 1842.34 -117.648 1801.21 -76.7655C1760.09 -35.8833 1734.62 20.6408 1734.44 83.124C1734.26 145.607 1759.4 202.377 1800.28 243.399C1841.07 284.52 1897.59 309.992 1960.17 310.174Z" fill="#CCD1F3"/>
<path d="M1960.47 210.232L1960.33 257.315C1912.46 257.176 1869.07 237.627 1837.87 206.148C1806.57 174.668 1787.27 131.255 1787.41 83.2895C1787.55 35.4217 1807.1 -7.97553 1838.58 -39.2729C1870.06 -70.5703 1913.47 -89.8659 1961.34 -89.7266L1961.2 -42.6435C1926.28 -42.7451 1894.66 -28.7121 1871.74 -5.92371C1848.82 16.8647 1834.5 48.4082 1834.4 83.3282C1834.3 118.248 1848.33 149.874 1871.22 172.796C1894.01 195.815 1925.65 210.032 1960.47 210.134L1960.47 210.232Z" fill="#CCD1F3"/>
<path d="M1960.76 110.25L1960.62 157.333C1940.42 157.274 1922.1 148.981 1908.8 135.602L1908.6 135.503C1895.4 122.125 1887.21 103.758 1887.27 83.6494C1887.33 63.4429 1895.62 45.1241 1909 31.8227L1909 31.7246C1922.38 18.4232 1940.75 10.3352 1961.05 10.3942L1960.91 57.4773C1953.56 57.4559 1946.98 60.3795 1942.16 65.1719C1937.43 69.8665 1934.47 76.528 1934.45 83.8848C1934.43 91.2415 1937.35 97.9202 1942.05 102.642L1942.14 102.741C1946.84 107.463 1953.4 110.424 1960.86 110.446L1960.76 110.25Z" fill="#CCD1F3"/>
<path d="M1956.69 1509.83L1956.56 1556.91C1947.73 1556.88 1938.51 1556.56 1928.7 1555.94C1919.09 1555.33 1909.78 1554.52 1900.85 1553.41C1887.91 1551.9 1878.72 1540.2 1880.23 1527.36C1881.74 1514.51 1893.44 1505.23 1906.28 1506.74C1914.91 1507.74 1923.35 1508.55 1931.59 1509.07C1939.33 1509.58 1947.67 1509.8 1956.69 1509.83V1509.83ZM1959.31 610.048L1959.18 657.131C1841.47 656.788 1734.71 704.15 1657.38 781.122C1579.96 858.094 1531.98 964.481 1531.64 1082.19C1531.61 1091.21 1531.88 1099.55 1532.25 1107.3C1532.72 1115.64 1533.48 1124.08 1534.43 1132.61C1535.87 1145.47 1526.61 1157.11 1513.66 1158.55C1500.71 1159.98 1489.16 1150.73 1487.73 1137.78C1486.67 1128.75 1485.92 1119.43 1485.36 1109.81C1484.8 1100 1484.53 1090.68 1484.55 1081.95C1484.93 951.2 1538.25 833.058 1624.13 747.576C1710.01 662.193 1828.56 609.471 1959.31 609.852L1959.31 610.048Z" fill="#CCD1F3"/>
<path d="M1956.97 1409.84L1956.84 1456.93C1942.71 1456.88 1928.59 1456.06 1914.47 1454.35C1900.35 1452.74 1886.43 1450.25 1872.7 1447.07C1860.06 1444.19 1852.25 1431.51 1855.13 1418.87C1858.01 1406.22 1870.69 1398.41 1883.33 1401.29C1895.19 1404.07 1907.35 1406.17 1919.71 1407.58C1931.67 1408.98 1944.12 1409.71 1956.88 1409.74L1956.97 1409.84ZM1959.01 710.071L1958.87 757.154C1868.73 756.891 1787.01 793.143 1727.79 852.12C1668.57 910.998 1631.84 992.502 1631.58 1082.65C1631.54 1095.5 1632.19 1107.86 1633.53 1119.83C1634.87 1132.19 1636.99 1144.36 1639.6 1156.24C1642.51 1168.9 1634.53 1181.43 1621.87 1184.24C1609.2 1187.15 1596.67 1179.16 1593.86 1166.5C1590.76 1152.86 1588.35 1138.92 1586.83 1124.7C1585.3 1110.57 1584.46 1096.44 1584.5 1082.31C1584.8 979.221 1626.85 885.961 1694.63 818.574C1762.42 751.187 1855.92 709.673 1959.01 709.973L1959.01 710.071Z" fill="#CCD1F3"/>
<path d="M1957.27 1309.92L1957.13 1357C1881.61 1356.78 1813.33 1325.98 1763.94 1276.3C1714.64 1226.62 1684.14 1158.26 1684.36 1082.73C1684.58 1007.2 1715.38 938.924 1765.06 889.631C1814.74 840.338 1883.2 809.835 1958.73 810.055L1958.59 857.138C1896.01 856.956 1839.43 882.098 1798.31 922.981C1757.19 963.765 1731.72 1020.39 1731.54 1082.87C1731.36 1145.35 1756.5 1202.02 1797.38 1243.15C1838.17 1284.17 1894.69 1309.74 1957.27 1309.92V1309.92Z" fill="#CCD1F3"/>
<path d="M1957.57 1209.95L1957.43 1257.03C1909.56 1256.89 1866.17 1237.34 1834.97 1205.86C1803.67 1174.38 1784.37 1130.97 1784.51 1083C1784.65 1035.14 1804.2 991.739 1835.68 960.442C1867.16 929.144 1910.57 909.849 1958.44 909.988L1958.3 957.071C1923.38 956.97 1891.76 971.003 1868.84 993.889C1845.92 1016.68 1831.6 1048.22 1831.5 1083.14C1831.4 1118.06 1845.43 1149.69 1868.32 1172.61C1891.11 1195.53 1922.75 1209.75 1957.57 1209.85L1957.57 1209.95Z" fill="#CCD1F3"/>
<path d="M1957.86 1109.98L1957.72 1157.06C1937.52 1157 1919.2 1148.71 1905.9 1135.43L1905.7 1135.23C1892.5 1121.86 1884.31 1103.49 1884.37 1083.38C1884.43 1063.17 1892.72 1044.85 1906.1 1031.46C1919.48 1018.15 1937.85 1009.97 1958.15 1010.03L1958.01 1057.11C1950.66 1057.09 1944.08 1060.11 1939.26 1064.8C1934.53 1069.5 1931.57 1076.16 1931.55 1083.52C1931.53 1090.87 1934.45 1097.45 1939.15 1102.28L1939.24 1102.37C1943.94 1107.1 1950.5 1110.06 1957.96 1110.08L1957.86 1109.98Z" fill="#CCD1F3"/>
<path d="M936.08 -419.051C935.7 -288.297 882.387 -170.155 796.407 -84.6741C710.525 0.709029 591.977 53.3329 461.223 52.9524C330.47 52.5719 212.328 -0.740832 126.944 -86.6224C41.5612 -172.504 -11.1608 -291.053 -10.7803 -421.806L36.3027 -421.669C35.9602 -303.962 83.3216 -197.199 160.294 -119.876C237.266 -42.4549 343.653 5.52677 461.36 5.86933C579.068 6.21188 685.83 -41.2475 763.153 -118.122C840.575 -195.094 888.556 -301.48 888.899 -419.188L935.982 -419.051L936.08 -419.051Z" fill="#CCD1F3"/>
<path d="M1935.81 -416.141C1935.78 -407.313 1935.46 -397.995 1934.84 -388.286C1934.23 -378.675 1933.42 -369.358 1932.31 -360.337C1930.8 -347.492 1919.1 -338.207 1906.26 -339.716C1893.31 -341.225 1884.13 -352.925 1885.63 -365.77C1886.64 -374.399 1887.45 -382.832 1887.96 -391.071C1888.48 -398.818 1888.7 -407.155 1888.72 -416.18L1935.81 -416.043L1935.81 -416.141ZM988.947 -418.896L1036.03 -418.759C1035.69 -301.051 1083.05 -194.289 1160.02 -116.966C1236.9 -39.5449 1343.38 8.43697 1461.09 8.77952C1470.11 8.80579 1478.45 8.63387 1486.2 8.16598C1494.44 7.69951 1502.88 6.93934 1511.51 5.98357C1524.47 4.5499 1536.11 13.8043 1537.45 26.7562C1538.88 39.7083 1529.63 51.3541 1516.68 52.7878C1507.65 53.8405 1498.33 54.5981 1488.71 55.1587C1478.9 55.7187 1469.58 55.9858 1460.85 55.9604C1330.1 55.5799 1211.96 2.26715 1126.57 -83.6144C1041.19 -169.496 988.468 -288.045 988.849 -418.798L988.947 -418.896Z" fill="#CCD1F3"/>
<path d="M436.219 -420.504C436.181 -407.458 425.655 -396.993 412.609 -397.031C399.563 -397.069 389.098 -407.595 389.136 -420.641L436.219 -420.504ZM-38.4032 4.51464C-25.4554 4.55232 -14.8923 15.0787 -14.9303 28.1247C-14.9682 41.1706 -25.4943 51.6357 -38.5402 51.5977L-38.4032 4.51464Z" fill="#CCD1F3"/>
<path d="M-39.8717 504.255C77.836 504.598 184.598 457.236 261.921 380.264C339.343 303.292 387.324 196.905 387.667 79.1977C387.693 70.1734 387.423 61.835 387.053 54.0848C386.587 45.7457 385.827 37.3077 384.871 28.771C383.437 15.917 392.691 4.27111 405.643 2.83745C418.596 1.40378 430.143 10.6579 431.577 23.61C432.63 32.6374 433.387 41.9583 433.948 51.5728C434.508 61.3835 434.775 70.7029 434.75 79.4328C434.369 210.186 381.056 328.329 295.175 413.81C209.293 499.193 90.7444 551.915 -40.0093 551.534L-39.8723 504.451L-39.8717 504.255ZM-37.3902 -348.439L-37.2531 -395.522C-28.4251 -395.496 -19.2055 -395.175 -9.39825 -394.558C0.212829 -393.942 9.52904 -393.13 18.4521 -392.025C31.3956 -390.516 40.5821 -378.816 39.0734 -365.971C37.5646 -353.125 25.8649 -343.841 13.0194 -345.35C4.39036 -346.356 -4.04309 -347.165 -12.2812 -347.679C-20.0289 -348.192 -28.3659 -348.413 -37.3902 -348.439V-348.439Z" fill="#CCD1F3"/>
<path d="M-39.5705 404.291C50.574 404.553 132.291 368.302 191.513 309.325C250.735 250.447 287.462 168.943 287.724 78.7981C287.761 65.9483 287.111 53.587 285.772 41.6161C284.435 29.2527 282.312 17.0833 279.699 5.20678C276.793 -7.45536 284.775 -19.9877 297.436 -22.7955C310.098 -25.6033 322.631 -17.7196 325.439 -5.05772C328.538 8.58589 330.95 22.5218 332.478 36.7494C334.006 50.8789 334.848 65.0064 334.807 79.1313C334.506 182.224 292.449 275.483 224.668 342.871C156.888 410.258 63.3845 451.772 -39.7078 451.472L-39.5708 404.389L-39.5705 404.291ZM-37.6711 -248.398L-37.534 -295.481C-23.5072 -295.44 -9.28655 -294.614 4.83352 -292.906C18.9539 -291.295 32.8756 -288.802 46.599 -285.624C59.2443 -282.742 67.1526 -270.065 64.1731 -257.42C61.2917 -244.775 48.6153 -236.965 35.97 -239.846C24.1092 -242.627 11.9521 -244.723 -0.403203 -246.132C-12.3662 -247.54 -24.8216 -248.263 -37.5733 -248.3L-37.6711 -248.398Z" fill="#CCD1F3"/>
<path d="M-39.278 304.354C23.2052 304.536 79.8766 279.394 120.997 238.512C162.118 197.727 187.59 141.105 187.772 78.6221C187.954 16.1389 162.811 -40.5325 121.929 -81.6534C81.1447 -122.676 24.5229 -148.246 -37.9603 -148.428L-37.8232 -195.511C37.7058 -195.291 105.985 -164.488 155.377 -114.809C204.67 -65.1295 235.173 3.23028 234.953 78.7594C234.733 154.289 203.93 222.568 154.251 271.861C104.572 321.252 36.1141 351.657 -39.415 351.437L-39.278 304.354Z" fill="#CCD1F3"/>
<path d="M-38.9994 204.395C-4.07941 204.496 27.5466 190.463 50.4683 167.577C73.3897 144.788 87.7047 113.245 87.8063 78.325C87.9079 43.4051 73.8749 11.779 50.9884 -11.1427C28.1019 -34.0644 -3.44186 -48.2812 -38.2637 -48.3825L-38.1267 -95.4656C9.7411 -95.3263 53.1383 -75.7781 84.3376 -44.2983C115.635 -12.8182 134.931 30.594 134.791 78.5598C134.652 126.428 115.103 169.825 83.6234 201.122C52.1433 232.42 8.73113 251.715 -39.1367 251.576L-38.9996 204.493L-38.9994 204.395Z" fill="#CCD1F3"/>
<path d="M-38.713 104.439C-31.3562 104.46 -24.7754 101.439 -19.9553 96.7444C-15.1349 91.952 -12.1731 85.3886 -12.1517 78.0319C-12.1306 70.7732 -15.0538 64.0945 -19.8462 59.2742C-24.6386 54.4538 -31.2021 51.4919 -38.5588 51.4705L-38.4218 4.38747C-18.1172 4.44656 0.299695 12.7398 13.5033 26.0204C26.8047 39.3995 34.9908 57.7662 34.9317 78.0708C34.8726 98.3754 26.5797 116.694 13.2007 129.996C-0.178345 143.297 -18.5451 151.483 -38.8497 151.424L-38.7127 104.341L-38.713 104.439Z" fill="#CCD1F3"/>
<path d="M-42.7718 1503.98C74.9359 1504.32 181.698 1456.96 259.021 1379.99C336.443 1303.02 384.424 1196.63 384.767 1078.92C385.109 961.216 337.65 854.454 260.776 777.131C183.902 699.71 77.4171 651.728 -40.2905 651.385L-40.1535 604.302C90.6001 604.683 208.742 657.995 294.223 743.975C379.606 829.857 432.23 948.405 431.85 1079.16C431.469 1209.91 378.156 1328.05 292.274 1413.54C206.393 1498.92 87.8443 1551.64 -42.9094 1551.26L-42.7724 1504.18L-42.7718 1503.98Z" fill="#CCD1F3"/>
<path d="M-42.4956 1404.03C47.6489 1404.29 129.366 1368.04 188.588 1309.16C247.809 1250.28 284.536 1168.78 284.799 1078.63C285.061 988.486 248.809 906.77 189.931 847.548C131.053 788.326 49.5486 751.501 -40.5959 751.238L-40.4588 704.155C62.6335 704.455 155.893 746.513 223.28 814.294C290.668 882.074 332.182 975.577 331.882 1078.67C331.582 1181.76 289.524 1275.02 221.744 1342.41C153.963 1409.8 60.46 1451.31 -42.6323 1451.01L-42.4953 1403.93L-42.4956 1404.03Z" fill="#CCD1F3"/>
<path d="M-42.1842 1304.1C20.2989 1304.28 76.9703 1279.14 118.091 1238.26C159.212 1197.38 184.684 1140.85 184.866 1078.37C185.048 1015.89 159.905 959.115 119.023 918.093C78.2388 876.972 21.6166 851.5 -40.8665 851.318L-40.7295 804.235C34.7996 804.455 103.079 835.258 152.47 884.937C201.764 934.518 232.267 1002.98 232.047 1078.51C231.827 1154.03 201.024 1222.31 151.345 1271.61C101.665 1321 33.2079 1351.4 -42.3212 1351.18L-42.1842 1304.1V1304.1Z" fill="#CCD1F3"/>
<path d="M-41.9056 1204.14C-6.98566 1204.24 24.6404 1190.21 47.5618 1167.42C70.4832 1144.63 84.7981 1113.09 84.8997 1078.17C85.0014 1043.25 70.9684 1011.62 48.0819 988.702C25.1957 965.682 -6.34811 951.465 -41.17 951.364L-41.033 904.28C6.83485 904.42 50.2321 923.968 81.4314 955.448C112.729 986.928 132.024 1030.34 131.885 1078.31C131.745 1126.17 112.197 1169.57 80.7171 1200.87C49.2371 1232.17 5.82488 1251.46 -42.0429 1251.32L-41.9059 1204.24L-41.9056 1204.14Z" fill="#CCD1F3"/>
<path d="M-41.6134 1104.19C-34.2566 1104.21 -27.676 1101.28 -22.8556 1096.49C-18.0353 1091.7 -15.0732 1085.04 -15.0521 1077.78C-15.031 1070.52 -17.9542 1063.84 -22.7466 1059.02C-27.539 1054.2 -34.1025 1051.24 -41.4592 1051.22L-41.3222 1004.13C-21.0176 1004.19 -2.6007 1012.49 10.6026 1025.86C23.904 1039.24 32.0901 1057.61 32.031 1077.91C31.9719 1098.22 23.679 1116.54 10.3 1129.84C-3.07902 1143.14 -21.4455 1151.23 -41.7501 1151.17L-41.6131 1104.09L-41.6134 1104.19Z" fill="#CCD1F3"/>
<path d="M1391.42 151.467C1295.33 139.613 1206.56 103.846 1131.19 50.4614C1061.69 1.11578 1003.61 -63.3026 961.747 -138.169C919.449 -63.5475 860.996 0.629819 791.209 49.472C715.624 102.417 626.651 137.569 530.391 148.962C518.537 245.056 482.868 333.822 429.385 409.196C380.04 478.697 315.621 536.775 240.755 578.638C315.376 620.936 379.456 679.388 428.396 749.175C481.341 824.761 516.493 913.733 527.886 1009.99C623.98 1021.85 712.844 1057.52 788.12 1111C857.621 1160.34 915.699 1224.76 957.562 1299.63C999.86 1225.01 1058.31 1160.83 1128.1 1111.99C1203.68 1059.04 1292.76 1023.89 1388.92 1012.5C1400.77 916.405 1436.54 827.639 1489.92 752.264C1539.27 682.666 1603.69 624.587 1678.55 582.822C1603.93 540.524 1539.85 482.072 1490.91 412.285C1437.97 336.7 1402.72 247.727 1391.42 151.467ZM1158.37 12.089C1231.99 64.2912 1319.78 98.0937 1414.9 106.61C1426.18 107.526 1435.47 116.479 1436.42 128.155C1444.38 223.326 1477.57 311.311 1529.44 385.325C1582.58 461.205 1655.19 522.429 1739.92 561.715C1744.92 563.986 1749.03 567.922 1751.46 573.324C1756.82 585.11 1751.58 599.024 1739.8 604.384C1654.74 643.079 1581.88 703.977 1528.3 779.547C1476.09 853.159 1442.29 940.95 1433.77 1035.98C1432.86 1047.25 1423.91 1056.55 1412.23 1057.49C1317.06 1065.46 1229.07 1098.65 1155.06 1150.52C1079.18 1203.66 1017.96 1276.26 978.767 1361C976.497 1365.99 972.463 1370.1 967.159 1372.54C955.373 1377.9 941.459 1372.66 936.098 1360.87C897.306 1275.91 836.506 1202.95 761.034 1149.37C687.323 1097.17 599.533 1063.37 504.409 1054.85C493.132 1053.84 483.938 1044.88 483.089 1033.21C475.126 938.038 441.933 850.15 390.062 776.137C336.922 700.256 264.317 639.032 179.582 599.844C174.586 597.573 170.478 593.54 168.042 588.236C162.681 576.449 167.92 562.536 179.707 557.175C264.668 518.382 337.628 457.582 391.111 382.11C443.411 308.4 477.116 220.609 485.632 125.486C486.646 114.208 495.599 105.014 507.176 104.165C602.347 96.202 690.333 63.0092 764.248 11.1382C840.129 -42.0022 901.352 -114.607 940.541 -199.342C942.811 -204.338 946.845 -208.446 952.149 -210.882C963.936 -216.243 977.849 -211.004 983.21 -199.217C1022 -114.256 1082.8 -41.296 1158.27 12.2849L1158.37 12.089Z" fill="#CCD1F3"/>
<path d="M1305.14 237.269C1236.23 220.785 1171.48 193.72 1112.63 157.942C1056.23 123.544 1005.25 81.0203 961.247 32.0432C916.964 80.8615 865.736 123.088 809.137 157.058C750.18 192.494 685.166 219.279 616.162 235.264C599.678 304.173 572.612 369.03 536.736 427.78C502.437 484.181 459.815 535.162 410.838 579.16C459.656 623.443 501.882 674.671 535.853 731.27C571.288 790.326 597.976 855.241 614.157 924.246C683.066 940.729 747.923 967.795 806.673 1003.67C863.074 1037.97 914.055 1080.49 958.053 1129.57C1002.24 1080.95 1053.47 1038.72 1110.16 1004.65L1110.26 1004.65L1110.16 1004.65C1169.22 969.119 1234.13 942.431 1303.14 926.349C1319.62 857.439 1346.69 792.582 1382.56 733.832C1416.96 677.432 1459.48 626.451 1508.46 582.452C1459.74 538.17 1417.52 486.942 1383.45 430.343C1348.01 371.385 1321.32 306.371 1305.24 237.367L1305.14 237.269ZM1137.07 117.697C1195.62 153.377 1260.48 179.756 1329.5 194.67C1338.42 196.462 1345.95 203.448 1347.88 212.968C1362.4 282.164 1388.4 347.274 1423.83 406.134C1459.95 466.172 1505.7 519.666 1559.03 564.257C1560.21 565.241 1561.28 566.225 1562.26 567.503C1570.57 577.434 1569.15 592.242 1559.12 600.551C1505.44 644.927 1459.28 698.154 1422.71 758.177C1387.03 816.732 1360.65 881.591 1345.74 950.603C1343.95 959.524 1336.96 967.057 1327.44 968.991C1258.24 983.503 1193.13 1009.5 1134.27 1044.94L1134.27 1044.84C1074.33 1080.86 1020.84 1126.71 976.151 1180.14C975.166 1181.31 974.084 1182.39 972.904 1183.37C962.875 1191.67 948.165 1190.26 939.857 1180.23C895.48 1126.54 842.253 1080.38 782.23 1043.82C723.676 1008.14 658.816 981.759 589.706 966.844C580.785 965.053 573.351 958.066 571.318 948.644C556.806 879.35 530.805 814.24 495.468 755.479C459.349 695.342 413.5 641.848 360.171 597.257C358.996 596.273 357.92 595.289 356.943 594.011C348.634 584.08 350.051 569.272 360.08 560.964C413.767 516.587 459.926 463.36 496.492 403.337C532.172 344.782 558.551 279.923 573.465 210.911C575.257 201.99 582.243 194.457 591.665 192.523C660.959 178.011 726.069 152.01 784.928 116.575C845.065 80.4561 898.462 34.607 943.052 -18.6245C944.036 -19.7987 945.118 -20.8745 946.298 -21.852C956.327 -30.1605 971.037 -28.7445 979.247 -18.7153C1023.62 34.9713 1076.85 81.1306 1136.87 117.697L1137.07 117.697Z" fill="#CCD1F3"/>
<path d="M960.852 170.919C923.19 202.689 882.597 230.919 839.465 254.924C794.663 279.905 747.029 300.757 696.956 316.6C680.822 366.482 659.791 414.092 634.452 458.65C610.098 501.543 581.73 542.07 549.742 579.545C581.512 617.206 609.742 657.8 633.747 700.833C658.826 745.636 679.482 793.27 695.423 843.342C745.305 859.476 792.915 880.606 837.571 905.847C880.464 930.201 920.991 958.569 958.466 990.557C996.127 958.787 1036.72 930.557 1079.85 906.553C1124.65 881.572 1172.29 860.719 1222.36 844.876C1238.5 794.995 1259.53 747.384 1284.87 702.728C1309.22 659.836 1337.59 619.407 1369.58 581.931C1337.81 544.27 1309.67 503.677 1285.57 460.643C1260.49 415.841 1239.84 368.206 1223.89 318.134C1174.01 302 1126.4 280.968 1081.75 255.629C1038.85 231.276 998.327 202.908 960.852 170.919V170.919ZM816.632 213.855C862.908 187.996 906.059 157.223 945.2 122.417C953.954 114.399 967.589 114.242 976.589 122.41C1015.53 157.542 1058.5 188.467 1104.72 214.694C1150.36 240.526 1198.75 261.561 1249.42 277.01C1256.67 279.189 1262.74 284.896 1265.07 292.652C1280.22 343.409 1300.98 391.926 1326.54 437.711C1352.5 483.987 1383.08 527.138 1417.88 566.279C1425.9 575.032 1426.15 588.668 1417.99 597.668C1382.86 636.606 1351.93 679.578 1325.7 725.8C1299.87 771.337 1278.84 819.831 1263.39 870.499C1261.21 877.751 1255.5 883.816 1247.74 886.148C1196.99 901.302 1148.47 922.054 1102.69 947.621C1056.41 973.578 1013.26 1004.25 974.118 1039.06C965.364 1047.08 951.729 1047.23 942.729 1039.07C903.791 1003.93 860.819 973.009 814.597 946.782C768.962 920.95 720.566 899.916 669.898 884.466C662.646 882.287 656.581 876.58 654.249 868.824C639.095 818.067 618.343 769.55 592.776 723.765C566.917 677.391 536.144 634.338 501.436 595.197C493.418 586.444 493.163 572.808 501.331 563.808C536.463 524.87 567.388 481.898 593.615 435.676C619.447 390.041 640.481 341.645 655.931 291.076C658.11 283.823 663.817 277.758 671.573 275.427C722.33 260.272 770.847 239.52 816.631 213.954L816.632 213.855Z" fill="#CCD1F3"/>
<path d="M960.489 296.965C932.476 316.502 903.39 334.269 873.524 350.269C841.988 367.147 809.182 382.06 775.205 395.105C761.962 429.006 746.761 461.724 729.798 493.161C713.624 523.032 695.687 551.917 675.988 579.913C695.524 607.926 713.292 637.012 729.292 666.878C746.072 698.414 761.082 731.22 774.127 765.198C808.028 778.44 840.746 793.642 872.184 810.703C902.055 826.778 930.939 844.813 958.837 864.512C986.85 845.074 1015.94 827.208 1045.8 811.208C1077.34 794.33 1110.14 779.32 1144.12 766.274C1157.36 732.373 1172.57 699.655 1189.53 668.218C1205.7 638.347 1223.64 609.463 1243.34 581.466C1223.8 553.453 1206.03 524.367 1190.03 494.501C1173.25 462.965 1158.24 430.159 1145.2 396.182C1111.3 382.939 1078.58 367.738 1047.14 350.775C1017.37 334.601 988.387 316.664 960.489 296.965V296.965ZM851.378 308.811C884.682 291.055 916.521 271.137 946.502 249.449C954.563 243.39 965.943 243.031 974.459 249.236C1004.41 271.197 1036.23 291.398 1069.63 309.446C1102.53 327.296 1136.72 342.894 1171.8 356.14C1177.88 358.414 1183.06 363.333 1185.59 370.011C1198.53 405.165 1214.03 439.346 1231.59 472.453C1249.44 505.856 1269.26 537.597 1290.95 567.578C1297.01 575.639 1297.37 587.018 1291.17 595.534C1269.2 625.486 1249 657.307 1230.96 690.703C1213.11 723.61 1197.51 757.7 1184.36 792.778C1181.99 798.951 1177.17 804.037 1170.49 806.568C1135.34 819.512 1101.06 835.009 1068.05 852.667C1034.74 870.422 1002.9 890.34 972.922 912.029C964.861 918.087 953.482 918.447 944.966 912.144C915.014 890.183 883.194 869.981 849.895 851.934C816.891 834.084 782.801 818.486 747.723 805.24C741.55 802.966 736.365 798.046 733.932 791.369C720.988 756.215 705.492 722.034 687.932 688.926C670.078 655.622 650.258 623.783 628.569 593.802C622.511 585.741 622.152 574.361 628.357 565.846C650.318 535.894 670.519 504.073 688.567 470.677C706.417 437.77 722.014 403.68 735.163 368.602C737.535 362.429 742.356 357.244 749.034 354.812C784.188 341.868 818.368 326.371 851.476 308.713L851.378 308.811Z" fill="#CCD1F3"/>
<path d="M960.142 416.131C943.045 426.283 925.949 435.846 908.954 444.625C890.387 454.183 871.233 463.348 851.491 471.923C842.802 491.614 833.526 510.714 823.86 529.127C814.982 546.169 805.319 563.209 794.97 580.246C805.122 597.344 814.685 614.439 823.464 631.435C833.023 650.001 842.187 669.156 850.762 688.897C870.453 697.586 889.554 706.862 908.065 716.529C925.008 725.407 942.048 735.069 959.086 745.32C976.184 735.07 993.279 725.605 1010.27 716.728C1028.84 707.17 1047.9 698.005 1067.74 689.43C1076.43 669.739 1085.7 650.639 1095.37 632.226C1104.25 615.184 1113.91 598.242 1124.26 581.107C1114.11 564.009 1104.54 546.914 1095.76 529.918C1086.21 511.352 1077.04 492.197 1068.47 472.456C1048.78 463.767 1029.67 454.491 1011.16 444.824C994.22 435.947 977.18 426.284 960.142 416.033L960.142 416.131ZM887.397 402.873C908.421 391.948 928.562 380.629 947.626 368.913C954.996 364.226 964.708 363.862 972.639 368.79C991.732 380.714 1011.91 392.25 1033.06 403.297C1053.82 414.148 1074.69 424.214 1095.65 433.201C1101.04 435.571 1105.54 439.802 1108.07 445.695C1116.94 466.712 1126.88 487.634 1137.61 508.46C1148.54 529.484 1159.86 549.625 1171.57 568.689C1176.26 576.059 1176.62 585.771 1171.8 593.702C1159.87 612.795 1148.24 632.968 1137.19 654.124C1126.34 674.887 1116.37 695.752 1107.29 716.618C1105.01 722.007 1100.69 726.604 1094.79 729.04C1073.78 737.905 1052.85 747.849 1032.03 758.578C1011 769.503 990.862 780.823 971.798 792.539C964.428 797.226 954.716 797.59 946.785 792.662C927.692 780.737 907.519 769.202 886.363 758.154C865.6 747.304 844.736 737.238 823.771 728.251C818.382 725.881 813.883 721.65 811.349 715.757C802.484 694.74 792.54 673.818 781.811 652.991C770.886 631.968 759.566 611.827 747.85 592.763C743.163 585.393 742.799 575.681 747.629 567.749C759.553 548.656 771.187 528.483 782.235 507.328C793.085 486.564 803.053 465.7 812.138 444.833C814.41 439.445 818.739 434.847 824.632 432.412C845.649 423.547 866.571 413.603 887.397 402.873Z" fill="#CCD1F3"/>
<path d="M959.902 530.92C955.383 533.261 950.471 535.797 945.265 538.43C939.076 541.551 932.887 544.574 926.699 547.498C923.738 553.669 920.68 559.742 917.523 566.011C914.859 571.202 912.294 576.197 909.927 580.702C912.561 585.713 915.097 590.624 917.437 595.34C920.558 601.528 923.581 607.717 926.604 613.905C933.265 617.162 939.435 620.221 945.116 623.082C950.013 625.646 954.911 628.113 959.612 630.677C964.622 628.043 969.435 625.605 974.151 623.166C980.438 620.046 986.627 616.925 992.815 614C995.873 607.927 998.932 601.757 1002.09 595.488L1002.09 595.39C1004.65 590.493 1007.12 585.693 1009.59 580.894C1007.25 576.375 1004.71 571.463 1002.08 566.257C998.956 559.97 995.933 553.781 992.91 547.691C986.837 544.731 980.666 541.672 974.397 538.515L974.299 538.514C969.99 536.344 965.191 533.78 959.902 530.92V530.92ZM924.199 496.386C931.371 492.777 939.525 488.485 948.76 483.509L948.759 483.607C955.538 479.998 963.975 479.728 971.124 483.673C977.685 487.321 985.912 491.563 995.707 496.594C1003.84 500.738 1012.16 504.882 1020.59 508.83C1025.39 511.1 1029.4 514.937 1031.74 520.044C1035.73 528.59 1039.83 536.94 1043.92 545.093C1047.53 552.166 1051.73 560.222 1056.7 569.457C1060.51 576.334 1060.78 584.771 1056.74 592.116C1052.2 600.538 1047.76 608.667 1043.72 616.698C1039.57 624.828 1035.43 633.154 1031.48 641.578C1029.21 646.378 1025.37 650.388 1020.17 652.825C1011.62 656.822 1003.27 660.918 995.021 665.014C986.867 669.11 979.204 673.109 972.131 676.914C965.153 681.406 955.931 682.066 947.998 677.825C939.673 673.288 931.446 668.948 923.513 664.805C914.502 660.267 906.274 656.123 898.732 652.472C893.932 650.202 889.922 646.365 887.484 641.257C883.487 632.711 879.392 624.362 875.296 616.208C871.2 608.055 867.2 600.392 863.395 593.319C858.806 586.243 858.146 577.02 862.485 569.186C867.613 559.882 871.952 551.655 875.504 544.603C879.648 536.473 883.792 528.148 887.838 519.626C890.108 514.826 893.946 510.815 899.053 508.476C907.599 504.479 915.948 500.384 924.102 496.288L924.199 496.386Z" fill="#CCD1F3"/>
</g>
<defs>
<clipPath id="clip0_801_685">
<rect width="1920" height="1080" fill="white"/>
</clipPath>
</defs>
</svg>
